  0
SECTION
  2
HEADER
  9
$ACADVER
  1
AC1009
  9
$INSBASE
 10
0.0
 20
0.0
 30
0.0
  9
$EXTMIN
 10
0.0
 20
0.0
 30
0.0
  9
$EXTMAX
 10
0.0
 20
0.0
 30
0.0
  0
ENDSEC
  0
SECTION
  2
TABLES
  0
TABLE
  2
VPORT
 70
0
  0
ENDTAB
  0
TABLE
  2
LTYPE
 70
1
  0
LTYPE
  2
CONTINUOUS
 70
0
  3
Solid line
 72
65
 73
0
 40
0.0
  0
ENDTAB
  0
TABLE
  2
LAYER
 70
1
  0
LAYER
  2
0
 70
64
 62
7
  6
continuous
  0
ENDTAB
  0
TABLE
  2
STYLE
 70
1
  0
STYLE
  2
STANDARD
 70
0
 40
0
 41
1.0
 50
0.0
 71
0
 42
1
 3
ARIAL.TTF
 4

  0
ENDTAB
  0
TABLE
  2
VIEW
 70
0
  0
ENDTAB
  0
ENDSEC
  0
SECTION
  2
BLOCKS
  0
ENDSEC
  0
SECTION
  2
ENTITIES
  0
POLYLINE
  8
Walls
 62
254
 70
0
 66
1
 10
0.0
 20
0.0
 30
0.0
  0
VERTEX
  8
Walls
 10
-2.14e-13
 20
3500.0
 30
0.0
  0
VERTEX
  8
Walls
 10
-1.37e-13
 20
2149.999972265625
 30
0.0
  0
SEQEND
  8
Walls
  0
POLYLINE
  8
Walls
 62
254
 70
0
 66
1
 10
0.0
 20
0.0
 30
0.0
  0
VERTEX
  8
Walls
 10
-2.14e-13
 20
3500.0
 30
0.0
  0
VERTEX
  8
Walls
 10
5000.0
 20
3500.0000000000005
 30
0.0
  0
SEQEND
  8
Walls
  0
POLYLINE
  8
Walls
 62
254
 70
0
 66
1
 10
0.0
 20
0.0
 30
0.0
  0
VERTEX
  8
Walls
 10
5000.0
 20
3500.0000000000005
 30
0.0
  0
VERTEX
  8
Walls
 10
5000.0
 20
0.0
 30
0.0
  0
SEQEND
  8
Walls
  0
POLYLINE
  8
Walls
 62
254
 70
0
 66
1
 10
0.0
 20
0.0
 30
0.0
  0
VERTEX
  8
Walls
 10
5000.0
 20
3.06e-13
 30
0.0
  0
VERTEX
  8
Walls
 10
0.0
 20
1.53e-13
 30
0.0
  0
SEQEND
  8
Walls
  0
POLYLINE
  8
Walls
 62
254
 70
0
 66
1
 10
0.0
 20
0.0
 30
0.0
  0
VERTEX
  8
Walls
 10
0.0
 20
0.0
 30
0.0
  0
VERTEX
  8
Walls
 10
-4.1e-14
 20
1350.0
 30
0.0
  0
SEQEND
  8
Walls
  0
POLYLINE
  8
Walls
 62
254
 70
0
 66
1
 10
0.0
 20
0.0
 30
0.0
  0
VERTEX
  8
Walls
 10
-199.99999999999977
 20
3700.0
 30
0.0
  0
VERTEX
  8
Walls
 10
5200.0
 20
3700.0000000000005
 30
0.0
  0
SEQEND
  8
Walls
  0
POLYLINE
  8
Walls
 62
254
 70
0
 66
1
 10
0.0
 20
0.0
 30
0.0
  0
VERTEX
  8
Walls
 10
5200.0
 20
3700.0000000000005
 30
0.0
  0
VERTEX
  8
Walls
 10
5200.0
 20
-200.0
 30
0.0
  0
SEQEND
  8
Walls
  0
POLYLINE
  8
Walls
 62
254
 70
0
 66
1
 10
0.0
 20
0.0
 30
0.0
  0
VERTEX
  8
Walls
 10
-200.0
 20
-200.0
 30
0.0
  0
VERTEX
  8
Walls
 10
-200.0
 20
1350.0
 30
0.0
  0
SEQEND
  8
Walls
  0
POLYLINE
  8
Walls
 62
254
 70
0
 66
1
 10
0.0
 20
0.0
 30
0.0
  0
VERTEX
  8
Walls
 10
-199.99999999999977
 20
3700.0
 30
0.0
  0
VERTEX
  8
Walls
 10
-199.99999999999983
 20
2149.999972265625
 30
0.0
  0
SEQEND
  8
Walls
  0
POLYLINE
  8
Walls
 62
254
 70
0
 66
1
 10
0.0
 20
0.0
 30
0.0
  0
VERTEX
  8
Walls
 10
-199.99999999999963
 20
2149.999972265625
 30
0.0
  0
VERTEX
  8
Walls
 10
-1.1368683772161603e-13
 20
2149.999972265625
 30
0.0
  0
SEQEND
  8
Walls
  0
POLYLINE
  8
Walls
 62
254
 70
0
 66
1
 10
0.0
 20
0.0
 30
0.0
  0
VERTEX
  8
Walls
 10
-199.99999999999997
 20
1350.0
 30
0.0
  0
VERTEX
  8
Walls
 10
-1.4210854715202004e-13
 20
1350.0
 30
0.0
  0
SEQEND
  8
Walls
  0
POLYLINE
  8
Walls
 62
254
 70
0
 66
1
 10
0.0
 20
0.0
 30
0.0
  0
VERTEX
  8
Walls
 10
-199.99999999999963
 20
2149.999972265625
 30
0.0
  0
VERTEX
  8
Walls
 10
-199.99999999999957
 20
1350.0
 30
0.0
  0
SEQEND
  8
Walls
  0
POLYLINE
  8
Walls
 62
254
 70
0
 66
1
 10
0.0
 20
0.0
 30
0.0
  0
VERTEX
  8
Walls
 10
-200.0
 20
-200.0
 30
0.0
  0
VERTEX
  8
Walls
 10
1410.0
 20
-199.99999999999977
 30
0.0
  0
SEQEND
  8
Walls
  0
POLYLINE
  8
Walls
 62
254
 70
0
 66
1
 10
0.0
 20
0.0
 30
0.0
  0
VERTEX
  8
Walls
 10
3590.0
 20
-199.99999999999935
 30
0.0
  0
VERTEX
  8
Walls
 10
5200.0
 20
-199.99999999999912
 30
0.0
  0
SEQEND
  8
Walls
  0
POLYLINE
  8
Walls
 62
254
 70
0
 66
1
 10
0.0
 20
0.0
 30
0.0
  0
VERTEX
  8
Walls
 10
1410.0
 20
-199.99999999999963
 30
0.0
  0
VERTEX
  8
Walls
 10
1410.0
 20
0.0
 30
0.0
  0
SEQEND
  8
Walls
  0
POLYLINE
  8
Walls
 62
254
 70
0
 66
1
 10
0.0
 20
0.0
 30
0.0
  0
VERTEX
  8
Walls
 10
3590.0
 20
-199.99999999999912
 30
0.0
  0
VERTEX
  8
Walls
 10
3590.0
 20
0.0
 30
0.0
  0
SEQEND
  8
Walls
  0
POLYLINE
  8
Window
 62
254
 70
1
 66
1
 10
0.0
 20
0.0
 30
0.0
  0
VERTEX
  8
Window
 10
1410.0
 20
-148.99684143066406
 30
0.0
  0
VERTEX
  8
Window
 10
1502.90673828125
 20
-148.99684143066406
 30
0.0
  0
VERTEX
  8
Window
 10
1502.90673828125
 20
8.526512829121202e-14
 30
0.0
  0
VERTEX
  8
Window
 10
1410.0
 20
8.526512829121202e-14
 30
0.0
  0
SEQEND
  8
Window
  0
POLYLINE
  8
Window
 62
254
 70
1
 66
1
 10
0.0
 20
0.0
 30
0.0
  0
VERTEX
  8
Window
 10
3497.09326171875
 20
-148.99684143066395
 30
0.0
  0
VERTEX
  8
Window
 10
3590.0
 20
-148.99684143066395
 30
0.0
  0
VERTEX
  8
Window
 10
3590.0
 20
1.9895196601282805e-13
 30
0.0
  0
VERTEX
  8
Window
 10
3497.09326171875
 20
1.9895196601282805e-13
 30
0.0
  0
SEQEND
  8
Window
  0
POLYLINE
  8
Window
 62
254
 70
0
 66
1
 10
0.0
 20
0.0
 30
0.0
  0
VERTEX
  8
Window
 10
1502.90673828125
 20
-74.4984207153319
 30
0.0
  0
VERTEX
  8
Window
 10
3497.09326171875
 20
-74.49842071533175
 30
0.0
  0
SEQEND
  8
Window
  0
POLYLINE
  8
Window
 62
254
 70
0
 66
1
 10
0.0
 20
0.0
 30
0.0
  0
VERTEX
  8
Window
 10
3771.7471923828125
 20
-199.99999999999952
 30
0.0
  0
VERTEX
  8
Window
 10
3771.7471923828125
 20
-265.7827148437498
 30
0.0
  0
SEQEND
  8
Window
  0
POLYLINE
  8
Window
 62
254
 70
0
 66
1
 10
0.0
 20
0.0
 30
0.0
  0
VERTEX
  8
Window
 10
1228.2528076171875
 20
-265.78271484374983
 30
0.0
  0
VERTEX
  8
Window
 10
3771.7471923828125
 20
-265.7827148437497
 30
0.0
  0
SEQEND
  8
Window
  0
POLYLINE
  8
Window
 62
254
 70
0
 66
1
 10
0.0
 20
0.0
 30
0.0
  0
VERTEX
  8
Window
 10
1228.2528076171875
 20
-199.9999999999994
 30
0.0
  0
VERTEX
  8
Window
 10
1228.2528076171875
 20
-265.78271484374966
 30
0.0
  0
SEQEND
  8
Window
  0
DIMENSION
  8
Dimensions
 62
254
 3
Standard
 70
1
 10
-687.5197143554688
 20
-199.99999999999997
 30
0.0
 13
-199.99999999999977
 23
3700.0
 33
0.0
 14
-200.0
 24
-200.0
 34
0.0
  0
DIMENSION
  8
Dimensions
 62
254
 3
Standard
 70
1
 10
5200.0
 20
4085.0734863281255
 30
0.0
 13
-199.99999999999977
 23
3700.0
 33
0.0
 14
5200.0
 24
3700.0000000000005
 34
0.0
  0
DIMENSION
  8
Dimensions
 62
254
 3
Standard
 70
1
 10
3590.0
 20
-663.7949218749998
 30
0.0
 13
1410.0
 23
-199.99999999999983
 33
0.0
 14
3590.0
 24
-199.99999999999955
 34
0.0
  0
DIMENSION
  8
Dimensions
 62
254
 3
Standard
 70
1
 10
1097.36962890625
 20
2150.0
 30
0.0
 13
729.0216064453123
 23
1350.0
 33
0.0
 14
729.0216064453123
 24
2150.0
 34
0.0
  0
DIMENSION
  8
Dimensions
 62
254
 3
Standard
 70
1
 10
-200.0
 20
208.33203125
 30
0.0
 13
0.0
 23
0.0
 33
0.0
 14
-200.0
 24
-1.22e-14
 34
0.0
  0
POLYLINE
  8
Furniture
 62
254
 70
1
 66
1
 10
0.0
 20
0.0
 30
0.0
  0
VERTEX
  8
Furniture
 10
1750.0
 20
3000.0
 30
0.0
  0
VERTEX
  8
Furniture
 10
3250.0
 20
3000.0
 30
0.0
  0
VERTEX
  8
Furniture
 10
3250.0
 20
3500.0
 30
0.0
  0
VERTEX
  8
Furniture
 10
1750.0
 20
3500.0
 30
0.0
  0
SEQEND
  8
Furniture
  0
POLYLINE
  8
Furniture
 62
254
 70
1
 66
1
 10
0.0
 20
0.0
 30
0.0
  0
VERTEX
  8
Furniture
 10
524.4564514160165
 20
3300.0
 30
0.0
  0
VERTEX
  8
Furniture
 10
884.4564514160165
 20
3300.0
 30
0.0
  0
VERTEX
  8
Furniture
 10
884.4564514160165
 20
3500.0
 30
0.0
  0
VERTEX
  8
Furniture
 10
524.4564514160165
 20
3500.0
 30
0.0
  0
SEQEND
  8
Furniture
  0
POLYLINE
  8
Furniture
 62
254
 70
1
 66
1
 10
0.0
 20
0.0
 30
0.0
  0
VERTEX
  8
Furniture
 10
4695.841796875
 20
735.849853515625
 30
0.0
  0
VERTEX
  8
Furniture
 10
4695.817597706972
 20
738.8998806608237
 30
0.0
  0
VERTEX
  8
Furniture
 10
4695.745001500619
 20
741.9497442423228
 30
0.0
  0
VERTEX
  8
Furniture
 10
4695.624012149052
 20
744.9992807051945
 30
0.0
  0
VERTEX
  8
Furniture
 10
4695.454636140565
 20
748.0483265120531
 30
0.0
  0
VERTEX
  8
Furniture
 10
4695.236882558278
 20
751.0967181518254
 30
0.0
  0
VERTEX
  8
Furniture
 10
4694.970763079655
 20
754.144292148519
 30
0.0
  0
VERTEX
  8
Furniture
 10
4694.656291975877
 20
757.1908850699895
 30
0.0
  0
VERTEX
  8
Furniture
 10
4694.293486111074
 20
760.2363335367044
 30
0.0
  0
VERTEX
  8
Furniture
 10
4693.8823649414235
 20
763.2804742305049
 30
0.0
  0
VERTEX
  8
Furniture
 10
4693.422950514107
 20
766.323143903364
 30
0.0
  0
VERTEX
  8
Furniture
 10
4692.9152674661245
 20
769.3641793861414
 30
0.0
  0
VERTEX
  8
Furniture
 10
4692.3593430229785
 20
772.4034175973329
 30
0.0
  0
VERTEX
  8
Furniture
 10
4691.755206997209
 20
775.440695551817
 30
0.0
  0
VERTEX
  8
Furniture
 10
4691.102891786798
 20
778.4758503695948
 30
0.0
  0
VERTEX
  8
Furniture
 10
4690.40243237343
 20
781.5087192845244
 30
0.0
  0
VERTEX
  8
Furniture
 10
4689.653866320618
 20
784.5391396530504
 30
0.0
  0
VERTEX
  8
Furniture
 10
4688.857233771688
 20
787.5669489629252
 30
0.0
  0
VERTEX
  8
Furniture
 10
4688.012577447625
 20
790.5919848419242
 30
0.0
  0
VERTEX
  8
Furniture
 10
4687.119942644785
 20
793.614085066554
 30
0.0
  0
VERTEX
  8
Furniture
 10
4686.179377232463
 20
796.6330875707511
 30
0.0
  0
VERTEX
  8
Furniture
 10
4685.190931650328
 20
799.6488304545733
 30
0.0
  0
VERTEX
  8
Furniture
 10
4684.154658905716
 20
802.6611519928822
 30
0.0
  0
VERTEX
  8
Furniture
 10
4683.070614570791
 20
805.6698906440154
 30
0.0
  0
VERTEX
  8
Furniture
 10
4681.9388567795595
 20
808.6748850584503
 30
0.0
  0
VERTEX
  8
Furniture
 10
4680.759446224757
 20
811.6759740874561
 30
0.0
  0
VERTEX
  8
Furniture
 10
4679.532446154592
 20
814.6729967917358
 30
0.0
  0
VERTEX
  8
Furniture
 10
4678.2579223693565
 20
817.6657924500576
 30
0.0
  0
VERTEX
  8
Furniture
 10
4676.935943217892
 20
820.6542005678727
 30
0.0
  0
VERTEX
  8
Furniture
 10
4675.566579593927
 20
823.6380608859233
 30
0.0
  0
VERTEX
  8
Furniture
 10
4674.149904932278
 20
826.617213388836
 30
0.0
  0
VERTEX
  8
Furniture
 10
4672.685995204909
 20
829.5914983137034
 30
0.0
  0
VERTEX
  8
Furniture
 10
4671.174928916853
 20
832.5607561586513
 30
0.0
  0
VERTEX
  8
Furniture
 10
4669.616787102012
 20
835.5248276913928
 30
0.0
  0
VERTEX
  8
Furniture
 10
4668.011653318801
 20
838.4835539577672
 30
0.0
  0
VERTEX
  8
Furniture
 10
4666.3596136456745
 20
841.4367762902639
 30
0.0
  0
VERTEX
  8
Furniture
 10
4664.660756676506
 20
844.3843363165319
 30
0.0
  0
VERTEX
  8
Furniture
 10
4662.915173515839
 20
847.3260759678724
 30
0.0
  0
VERTEX
  8
Furniture
 10
4661.122957774001
 20
850.2618374877154
 30
0.0
  0
VERTEX
  8
Furniture
 10
4659.284205562084
 20
853.1914634400805
 30
0.0
  0
VERTEX
  8
Furniture
 10
4657.399015486787
 20
856.1147967180186
 30
0.0
  0
VERTEX
  8
Furniture
 10
4655.467488645134
 20
859.0316805520379
 30
0.0
  0
VERTEX
  8
Furniture
 10
4653.489728619046
 20
861.9419585185107
 30
0.0
  0
VERTEX
  8
Furniture
 10
4651.465841469792
 20
864.8454745480617
 30
0.0
  0
VERTEX
  8
Furniture
 10
4649.395935732298
 20
867.7420729339383
 30
0.0
  0
VERTEX
  8
Furniture
 10
4647.280122409327
 20
870.6315983403596
 30
0.0
  0
VERTEX
  8
Furniture
 10
4645.118514965527
 20
873.5138958108472
 30
0.0
  0
VERTEX
  8
Furniture
 10
4642.911229321342
 20
876.3888107765353
 30
0.0
  0
VERTEX
  8
Furniture
 10
4640.658383846805
 20
879.256189064459
 30
0.0
  0
VERTEX
  8
Furniture
 10
4638.360099355181
 20
882.1158769058229
 30
0.0
  0
VERTEX
  8
Furniture
 10
4636.016499096492
 20
884.9677209442468
 30
0.0
  0
VERTEX
  8
Furniture
 10
4633.627708750908
 20
887.8115682439897
 30
0.0
  0
VERTEX
  8
Furniture
 10
4631.193856422005
 20
890.6472662981514
 30
0.0
  0
VERTEX
  8
Furniture
 10
4628.715072629899
 20
893.4746630368516
 30
0.0
  0
VERTEX
  8
Furniture
 10
4626.191490304239
 20
896.2936068353833
 30
0.0
  0
VERTEX
  8
Furniture
 10
4623.623244777089
 20
899.1039465223463
 30
0.0
  0
VERTEX
  8
Furniture
 10
4621.010473775661
 20
901.9055313877517
 30
0.0
  0
VERTEX
  8
Furniture
 10
4618.353317414934
 20
904.6982111911057
 30
0.0
  0
VERTEX
  8
Furniture
 10
4615.651918190142
 20
907.4818361694656
 30
0.0
  0
VERTEX
  8
Furniture
 10
4612.906420969125
 20
910.2562570454718
 30
0.0
  0
VERTEX
  8
Furniture
 10
4610.116972984567
 20
913.0213250353527
 30
0.0
  0
VERTEX
  8
Furniture
 10
4607.283723826098
 20
915.7768918569035
 30
0.0
  0
VERTEX
  8
Furniture
 10
4604.406825432273
 20
918.5228097374383
 30
0.0
  0
VERTEX
  8
Furniture
 10
4601.486432082421
 20
921.2589314217146
 30
0.0
  0
VERTEX
  8
Furniture
 10
4598.522700388374
 20
923.98511017983
 30
0.0
  0
VERTEX
  8
Furniture
 10
4595.515789286068
 20
926.7011998150915
 30
0.0
  0
VERTEX
  8
Furniture
 10
4592.465860027022
 20
929.4070546718547
 30
0.0
  0
VERTEX
  8
Furniture
 10
4589.373076169684
 20
932.1025296433354
 30
0.0
  0
VERTEX
  8
Furniture
 10
4586.2376035706675
 20
934.7874801793914
 30
0.0
  0
VERTEX
  8
Furniture
 10
4583.059610375852
 20
937.4617622942737
 30
0.0
  0
VERTEX
  8
Furniture
 10
4579.839267011366
 20
940.1252325743487
 30
0.0
  0
VERTEX
  8
Furniture
 10
4576.5767461744545
 20
942.7777481857884
 30
0.0
  0
VERTEX
  8
Furniture
 10
4573.2722228242055
 20
945.4191668822303
 30
0.0
  0
VERTEX
  8
Furniture
 10
4569.925874172179
 20
948.0493470124063
 30
0.0
  0
VERTEX
  8
Furniture
 10
4566.537879672897
 20
950.6681475277383
 30
0.0
  0
VERTEX
  8
Furniture
 10
4563.108421014224
 20
953.2754279899018
 30
0.0
  0
VERTEX
  8
Furniture
 10
4559.637682107618
 20
955.8710485783588
 30
0.0
  0
VERTEX
  8
Furniture
 10
4556.125849078275
 20
958.4548700978542
 30
0.0
  0
VERTEX
  8
Furniture
 10
4552.573110255141
 20
961.0267539858814
 30
0.0
  0
VERTEX
  8
Furniture
 10
4548.979656160818
 20
963.5865623201129
 30
0.0
  0
VERTEX
  8
Furniture
 10
4545.3456795013435
 20
966.1341578257961
 30
0.0
  0
VERTEX
  8
Furniture
 10
4541.671375155857
 20
968.6694038831158
 30
0.0
  0
VERTEX
  8
Furniture
 10
4537.95694016615
 20
971.19216453452
 30
0.0
  0
VERTEX
  8
Furniture
 10
4534.202573726097
 20
973.7023044920111
 30
0.0
  0
VERTEX
  8
Furniture
 10
4530.408477170979
 20
976.199689144401
 30
0.0
  0
VERTEX
  8
Furniture
 10
4526.574853966676
 20
978.6841845645299
 30
0.0
  0
VERTEX
  8
Furniture
 10
4522.701909698769
 20
981.1556575164489
 30
0.0
  0
VERTEX
  8
Furniture
 10
4518.789852061504
 20
983.6139754625635
 30
0.0
  0
VERTEX
  8
Furniture
 10
4514.8388908466595
 20
986.0590065707432
 30
0.0
  0
VERTEX
  8
Furniture
 10
4510.849237932296
 20
988.49061972139
 30
0.0
  0
VERTEX
  8
Furniture
 10
4506.82110727139
 20
990.9086845144701
 30
0.0
  0
VERTEX
  8
Furniture
 10
4502.754714880366
 20
993.3130712765071
 30
0.0
  0
VERTEX
  8
Furniture
 10
4498.650278827505
 20
995.7036510675359
 30
0.0
  0
VERTEX
  8
Furniture
 10
4494.508019221257
 20
998.0802956880173
 30
0.0
  0
VERTEX
  8
Furniture
 10
4490.328158198433
 20
1000.442877685713
 30
0.0
  0
VERTEX
  8
Furniture
 10
4486.110919912296
 20
1002.7912703625207
 30
0.0
  0
VERTEX
  8
Furniture
 10
4481.856530520535
 20
1005.125347781268
 30
0.0
  0
VERTEX
  8
Furniture
 10
4477.565218173143
 20
1007.4449847724666
 30
0.0
  0
VERTEX
  8
Furniture
 10
4473.237213000177
 20
1009.7500569410242
 30
0.0
  0
VERTEX
  8
Furniture
 10
4468.872747099419
 20
1012.0404406729162
 30
0.0
  0
VERTEX
  8
Furniture
 10
4464.472054523931
 20
1014.3160131418139
 30
0.0
  0
VERTEX
  8
Furniture
 10
4460.0353712695
 20
1016.5766523156717
 30
0.0
  0
VERTEX
  8
Furniture
 10
4455.5629352619835
 20
1018.8222369632714
 30
0.0
  0
VERTEX
  8
Furniture
 10
4451.054986344552
 20
1021.0526466607234
 30
0.0
  0
VERTEX
  8
Furniture
 10
4446.511766264826
 20
1023.2677617979248
 30
0.0
  0
VERTEX
  8
Furniture
 10
4441.933518661909
 20
1025.4674635849728
 30
0.0
  0
VERTEX
  8
Furniture
 10
4437.320489053327
 20
1027.6516340585367
 30
0.0
  0
VERTEX
  8
Furniture
 10
4432.672924821856
 20
1029.8201560881826
 30
0.0
  0
VERTEX
  8
Furniture
 10
4427.991075202264
 20
1031.972913382655
 30
0.0
  0
VERTEX
  8
Furniture
 10
4423.275191267935
 20
1034.1097904961134
 30
0.0
  0
VERTEX
  8
Furniture
 10
4418.525525917414
 20
1036.2306728343237
 30
0.0
  0
VERTEX
  8
Furniture
 10
4413.742333860838
 20
1038.3354466608025
 30
0.0
  0
VERTEX
  8
Furniture
 10
4408.925871606281
 20
1040.4239991029167
 30
0.0
  0
VERTEX
  8
Furniture
 10
4404.076397445997
 20
1042.4962181579378
 30
0.0
  0
VERTEX
  8
Furniture
 10
4399.194171442568
 20
1044.5519926990467
 30
0.0
  0
VERTEX
  8
Furniture
 10
4394.279455414958
 20
1046.5912124812933
 30
0.0
  0
VERTEX
  8
Furniture
 10
4389.33251292447
 20
1048.6137681475097
 30
0.0
  0
VERTEX
  8
Furniture
 10
4384.35360926062
 20
1050.6195512341737
 30
0.0
  0
VERTEX
  8
Furniture
 10
4379.343011426899
 20
1052.6084541772252
 30
0.0
  0
VERTEX
  8
Furniture
 10
4374.3009881264625
 20
1054.580370317836
 30
0.0
  0
VERTEX
  8
Furniture
 10
4369.227809747718
 20
1056.5351939081274
 30
0.0
  0
VERTEX
  8
Furniture
 10
4364.123748349828
 20
1058.4728201168432
 30
0.0
  0
VERTEX
  8
Furniture
 10
4358.989077648113
 20
1060.3931450349698
 30
0.0
  0
VERTEX
  8
Furniture
 10
4353.82407299938
 20
1062.2960656813102
 30
0.0
  0
VERTEX
  8
Furniture
 10
4348.6290113871555
 20
1064.181480008005
 30
0.0
  0
VERTEX
  8
Furniture
 10
4343.404171406824
 20
1066.0492869060056
 30
0.0
  0
VERTEX
  8
Furniture
 10
4338.149833250701
 20
1067.899386210497
 30
0.0
  0
VERTEX
  8
Furniture
 10
4332.866278692992
 20
1069.7316787062678
 30
0.0
  0
VERTEX
  8
Furniture
 10
4327.553791074695
 20
1071.5460661330321
 30
0.0
  0
VERTEX
  8
Furniture
 10
4322.212655288399
 20
1073.3424511906992
 30
0.0
  0
VERTEX
  8
Furniture
 10
4316.843157763006
 20
1075.12073754459
 30
0.0
  0
VERTEX
  8
Furniture
 10
4311.4455864483725
 20
1076.8808298306037
 30
0.0
  0
VERTEX
  8
Furniture
 10
4306.020230799868
 20
1078.622633660333
 30
0.0
  0
VERTEX
  8
Furniture
 10
4300.56738176285
 20
1080.3460556261246
 30
0.0
  0
VERTEX
  8
Furniture
 10
4295.087331757064
 20
1082.0510033060884
 30
0.0
  0
VERTEX
  8
Furniture
 10
4289.580374660962
 20
1083.7373852690553
 30
0.0
  0
VERTEX
  8
Furniture
 10
4284.046805795938
 20
1085.4051110794778
 30
0.0
  0
VERTEX
  8
Furniture
 10
4278.4869219104985
 20
1087.0540913022824
 30
0.0
  0
VERTEX
  8
Furniture
 10
4272.901021164342
 20
1088.684237507664
 30
0.0
  0
VERTEX
  8
Furniture
 10
4267.289403112374
 20
1090.295462275829
 30
0.0
  0
VERTEX
  8
Furniture
 10
4261.652368688639
 20
1091.8876792016827
 30
0.0
  0
VERTEX
  8
Furniture
 10
4255.990220190188
 20
1093.4608028994635
 30
0.0
  0
VERTEX
  8
Furniture
 10
4250.303261260859
 20
1095.0147490073218
 30
0.0
  0
VERTEX
  8
Furniture
 10
4244.591796875
 20
1096.5494341918438
 30
0.0
  0
VERTEX
  8
Furniture
 10
4238.856133321115
 20
1098.0647761525204
 30
0.0
  0
VERTEX
  8
Furniture
 10
4233.096578185431
 20
1099.5606936261613
 30
0.0
  0
VERTEX
  8
Furniture
 10
4227.313440335412
 20
1101.037106391252
 30
0.0
  0
VERTEX
  8
Furniture
 10
4221.50702990319
 20
1102.493935272257
 30
0.0
  0
VERTEX
  8
Furniture
 10
4215.677658268935
 20
1103.9311021438643
 30
0.0
  0
VERTEX
  8
Furniture
 10
4209.825638044157
 20
1105.3485299351764
 30
0.0
  0
VERTEX
  8
Furniture
 10
4203.951283054939
 20
1106.7461426338423
 30
0.0
  0
VERTEX
  8
Furniture
 10
4198.054908325113
 20
1108.1238652901345
 30
0.0
  0
VERTEX
  8
Furniture
 10
4192.136830059359
 20
1109.4816240209684
 30
0.0
  0
VERTEX
  8
Furniture
 10
4186.197365626256
 20
1110.8193460138634
 30
0.0
  0
VERTEX
  8
Furniture
 10
4180.236833541257
 20
1112.1369595308493
 30
0.0
  0
VERTEX
  8
Furniture
 10
4174.255553449605
 20
1113.4343939123114
 30
0.0
  0
VERTEX
  8
Furniture
 10
4168.253846109203
 20
1114.711579580782
 30
0.0
  0
VERTEX
  8
Furniture
 10
4162.232033373398
 20
1115.968448044669
 30
0.0
  0
VERTEX
  8
Furniture
 10
4156.190438173734
 20
1117.2049319019318
 30
0.0
  0
VERTEX
  8
Furniture
 10
4150.129384502626
 20
1118.4209648436931
 30
0.0
  0
VERTEX
  8
Furniture
 10
4144.049197395987
 20
1119.616481657797
 30
0.0
  0
VERTEX
  8
Furniture
 10
4137.9502029158
 20
1120.7914182323047
 30
0.0
  0
VERTEX
  8
Furniture
 10
4131.832728132629
 20
1121.945711558934
 30
0.0
  0
VERTEX
  8
Furniture
 10
4125.697101108082
 20
1123.0792997364365
 30
0.0
  0
VERTEX
  8
Furniture
 10
4119.5436508772145
 20
1124.1921219739183
 30
0.0
  0
VERTEX
  8
Furniture
 10
4113.372707430888
 20
1125.2841185941004
 30
0.0
  0
VERTEX
  8
Furniture
 10
4107.184601698073
 20
1126.355231036518
 30
0.0
  0
VERTEX
  8
Furniture
 10
4100.979665528097
 20
1127.4054018606612
 30
0.0
  0
VERTEX
  8
Furniture
 10
4094.7582316728585
 20
1128.4345747490565
 30
0.0
  0
VERTEX
  8
Furniture
 10
4088.520633768973
 20
1129.4426945102846
 30
0.0
  0
VERTEX
  8
Furniture
 10
4082.267206319886
 20
1130.4297070819423
 30
0.0
  0
VERTEX
  8
Furniture
 10
4075.998284677934
 20
1131.395559533541
 30
0.0
  0
VERTEX
  8
Furniture
 10
4069.7142050263587
 20
1132.340200069345
 30
0.0
  0
VERTEX
  8
Furniture
 10
4063.415304361281
 20
1133.2635780311489
 30
0.0
  0
VERTEX
  8
Furniture
 10
4057.1019204736276
 20
1134.1656439009953
 30
0.0
  0
VERTEX
  8
Furniture
 10
4050.7743919310155
 20
1135.0463493038287
 30
0.0
  0
VERTEX
  8
Furniture
 10
4044.433058059599
 20
1135.9056470100916
 30
0.0
  0
VERTEX
  8
Furniture
 10
4038.0782589258665
 20
1136.7434909382557
 30
0.0
  0
VERTEX
  8
Furniture
 10
4031.710335318411
 20
1137.5598361572938
 30
0.0
  0
VERTEX
  8
Furniture
 10
4025.32962872965
 20
1138.3546388890895
 30
0.0
  0
VERTEX
  8
Furniture
 10
4018.936481337513
 20
1139.127856510784
 30
0.0
  0
VERTEX
  8
Furniture
 10
4012.5312359870927
 20
1139.8794475570633
 30
0.0
  0
VERTEX
  8
Furniture
 10
4006.114236172258
 20
1140.6093717223803
 30
0.0
  0
VERTEX
  8
Furniture
 10
3999.685826017235
 20
1141.317589863117
 30
0.0
  0
VERTEX
  8
Furniture
 10
3993.2463502581504
 20
1142.0040639996841
 30
0.0
  0
VERTEX
  8
Furniture
 10
3986.7961542245466
 20
1142.6687573185573
 30
0.0
  0
VERTEX
  8
Furniture
 10
3980.335583820862
 20
1143.3116341742507
 30
0.0
  0
VERTEX
  8
Furniture
 10
3973.86498550788
 20
1143.9326600912295
 30
0.0
  0
VERTEX
  8
Furniture
 10
3967.3847062841514
 20
1144.531801765759
 30
0.0
  0
VERTEX
  8
Furniture
 10
3960.8950936673837
 20
1145.1090270676889
 30
0.0
  0
VERTEX
  8
Furniture
 10
3954.396495675807
 20
1145.6643050421783
 30
0.0
  0
VERTEX
  8
Furniture
 10
3947.889260809509
 20
1146.1976059113547
 30
0.0
  0
VERTEX
  8
Furniture
 10
3941.373738031747
 20
1146.708901075911
 30
0.0
  0
VERTEX
  8
Furniture
 10
3934.850276750235
 20
1147.198163116639
 30
0.0
  0
VERTEX
  8
Furniture
 10
3928.319226798403
 20
1147.6653657959005
 30
0.0
  0
VERTEX
  8
Furniture
 10
3921.78093841664
 20
1148.1104840590335
 30
0.0
  0
VERTEX
  8
Furniture
 10
3915.235762233508
 20
1148.5334940356965
 30
0.0
  0
VERTEX
  8
Furniture
 10
3908.6840492469432
 20
1148.9343730411483
 30
0.0
  0
VERTEX
  8
Furniture
 10
3902.126150805429
 20
1149.3130995774645
 30
0.0
  0
VERTEX
  8
Furniture
 10
3895.562418589157
 20
1149.66965333469
 30
0.0
  0
VERTEX
  8
Furniture
 10
3888.993204591166
 20
1150.0040151919293
 30
0.0
  0
VERTEX
  8
Furniture
 10
3882.418861098466
 20
1150.3161672183705
 30
0.0
  0
VERTEX
  8
Furniture
 10
3875.8397406731465
 20
1150.6060926742477
 30
0.0
  0
VERTEX
  8
Furniture
 10
3869.2561961334695
 20
1150.8737760117388
 30
0.0
  0
VERTEX
  8
Furniture
 10
3862.668580534949
 20
1151.1192028757985
 30
0.0
  0
VERTEX
  8
Furniture
 10
3856.077247151416
 20
1151.3423601049292
 30
0.0
  0
VERTEX
  8
Furniture
 10
3849.482549456077
 20
1151.5432357318857
 30
0.0
  0
VERTEX
  8
Furniture
 10
3842.8848411025556
 20
1151.721818984318
 30
0.0
  0
VERTEX
  8
Furniture
 10
3836.284475905927
 20
1151.878100285348
 30
0.0
  0
VERTEX
  8
Furniture
 10
3829.6818078237475
 20
1152.0120712540838
 30
0.0
  0
VERTEX
  8
Furniture
 10
3823.077190937066
 20
1152.1237247060692
 30
0.0
  0
VERTEX
  8
Furniture
 10
3816.4709794314435
 20
1152.2130546536682
 30
0.0
  0
VERTEX
  8
Furniture
 10
3809.863527577954
 20
1152.280056306387
 30
0.0
  0
VERTEX
  8
Furniture
 10
3803.2551897141875
 20
1152.32472607113
 30
0.0
  0
VERTEX
  8
Furniture
 10
3796.646320225249
 20
1152.3470615523938
 30
0.0
  0
VERTEX
  8
Furniture
 10
3790.0372735247515
 20
1152.3470615523938
 30
0.0
  0
VERTEX
  8
Furniture
 10
3783.4284040358125
 20
1152.32472607113
 30
0.0
  0
VERTEX
  8
Furniture
 10
3776.820066172046
 20
1152.280056306387
 30
0.0
  0
VERTEX
  8
Furniture
 10
3770.2126143185565
 20
1152.2130546536682
 30
0.0
  0
VERTEX
  8
Furniture
 10
3763.606402812934
 20
1152.1237247060692
 30
0.0
  0
VERTEX
  8
Furniture
 10
3757.001785926253
 20
1152.0120712540838
 30
0.0
  0
VERTEX
  8
Furniture
 10
3750.3991178440724
 20
1151.878100285348
 30
0.0
  0
VERTEX
  8
Furniture
 10
3743.7987526474444
 20
1151.721818984318
 30
0.0
  0
VERTEX
  8
Furniture
 10
3737.201044293923
 20
1151.5432357318857
 30
0.0
  0
VERTEX
  8
Furniture
 10
3730.606346598584
 20
1151.3423601049292
 30
0.0
  0
VERTEX
  8
Furniture
 10
3724.015013215051
 20
1151.1192028757985
 30
0.0
  0
VERTEX
  8
Furniture
 10
3717.4273976165305
 20
1150.8737760117388
 30
0.0
  0
VERTEX
  8
Furniture
 10
3710.843853076853
 20
1150.6060926742477
 30
0.0
  0
VERTEX
  8
Furniture
 10
3704.264732651534
 20
1150.3161672183705
 30
0.0
  0
VERTEX
  8
Furniture
 10
3697.690389158834
 20
1150.0040151919293
 30
0.0
  0
VERTEX
  8
Furniture
 10
3691.121175160843
 20
1149.66965333469
 30
0.0
  0
VERTEX
  8
Furniture
 10
3684.557442944571
 20
1149.3130995774645
 30
0.0
  0
VERTEX
  8
Furniture
 10
3677.9995445030568
 20
1148.9343730411483
 30
0.0
  0
VERTEX
  8
Furniture
 10
3671.447831516492
 20
1148.5334940356965
 30
0.0
  0
VERTEX
  8
Furniture
 10
3664.90265533336
 20
1148.1104840590335
 30
0.0
  0
VERTEX
  8
Furniture
 10
3658.364366951597
 20
1147.6653657959005
 30
0.0
  0
VERTEX
  8
Furniture
 10
3651.833316999765
 20
1147.198163116639
 30
0.0
  0
VERTEX
  8
Furniture
 10
3645.3098557182525
 20
1146.708901075911
 30
0.0
  0
VERTEX
  8
Furniture
 10
3638.794332940491
 20
1146.1976059113547
 30
0.0
  0
VERTEX
  8
Furniture
 10
3632.287098074193
 20
1145.6643050421783
 30
0.0
  0
VERTEX
  8
Furniture
 10
3625.788500082617
 20
1145.1090270676889
 30
0.0
  0
VERTEX
  8
Furniture
 10
3619.298887465849
 20
1144.531801765759
 30
0.0
  0
VERTEX
  8
Furniture
 10
3612.81860824212
 20
1143.9326600912295
 30
0.0
  0
VERTEX
  8
Furniture
 10
3606.3480099291382
 20
1143.3116341742507
 30
0.0
  0
VERTEX
  8
Furniture
 10
3599.8874395254534
 20
1142.6687573185573
 30
0.0
  0
VERTEX
  8
Furniture
 10
3593.4372434918496
 20
1142.0040639996841
 30
0.0
  0
VERTEX
  8
Furniture
 10
3586.997767732765
 20
1141.317589863117
 30
0.0
  0
VERTEX
  8
Furniture
 10
3580.569357577742
 20
1140.6093717223803
 30
0.0
  0
VERTEX
  8
Furniture
 10
3574.1523577629073
 20
1139.8794475570633
 30
0.0
  0
VERTEX
  8
Furniture
 10
3567.7471124124872
 20
1139.127856510784
 30
0.0
  0
VERTEX
  8
Furniture
 10
3561.35396502035
 20
1138.3546388890895
 30
0.0
  0
VERTEX
  8
Furniture
 10
3554.973258431589
 20
1137.5598361572938
 30
0.0
  0
VERTEX
  8
Furniture
 10
3548.6053348241335
 20
1136.7434909382557
 30
0.0
  0
VERTEX
  8
Furniture
 10
3542.2505356904016
 20
1135.9056470100916
 30
0.0
  0
VERTEX
  8
Furniture
 10
3535.9092018189845
 20
1135.0463493038287
 30
0.0
  0
VERTEX
  8
Furniture
 10
3529.5816732763724
 20
1134.1656439009953
 30
0.0
  0
VERTEX
  8
Furniture
 10
3523.268289388719
 20
1133.2635780311489
 30
0.0
  0
VERTEX
  8
Furniture
 10
3516.9693887236413
 20
1132.340200069345
 30
0.0
  0
VERTEX
  8
Furniture
 10
3510.685309072066
 20
1131.395559533541
 30
0.0
  0
VERTEX
  8
Furniture
 10
3504.416387430114
 20
1130.4297070819423
 30
0.0
  0
VERTEX
  8
Furniture
 10
3498.162959981027
 20
1129.4426945102846
 30
0.0
  0
VERTEX
  8
Furniture
 10
3491.9253620771415
 20
1128.4345747490563
 30
0.0
  0
VERTEX
  8
Furniture
 10
3485.703928221903
 20
1127.4054018606612
 30
0.0
  0
VERTEX
  8
Furniture
 10
3479.4989920519274
 20
1126.355231036518
 30
0.0
  0
VERTEX
  8
Furniture
 10
3473.3108863191114
 20
1125.2841185941004
 30
0.0
  0
VERTEX
  8
Furniture
 10
3467.139942872785
 20
1124.1921219739183
 30
0.0
  0
VERTEX
  8
Furniture
 10
3460.9864926419177
 20
1123.0792997364363
 30
0.0
  0
VERTEX
  8
Furniture
 10
3454.8508656173703
 20
1121.945711558934
 30
0.0
  0
VERTEX
  8
Furniture
 10
3448.7333908342
 20
1120.7914182323047
 30
0.0
  0
VERTEX
  8
Furniture
 10
3442.634396354013
 20
1119.616481657797
 30
0.0
  0
VERTEX
  8
Furniture
 10
3436.5542092473743
 20
1118.4209648436931
 30
0.0
  0
VERTEX
  8
Furniture
 10
3430.4931555762655
 20
1117.2049319019318
 30
0.0
  0
VERTEX
  8
Furniture
 10
3424.4515603766017
 20
1115.968448044669
 30
0.0
  0
VERTEX
  8
Furniture
 10
3418.4297476407974
 20
1114.711579580782
 30
0.0
  0
VERTEX
  8
Furniture
 10
3412.4280403003945
 20
1113.4343939123114
 30
0.0
  0
VERTEX
  8
Furniture
 10
3406.4467602087434
 20
1112.1369595308493
 30
0.0
  0
VERTEX
  8
Furniture
 10
3400.4862281237433
 20
1110.8193460138634
 30
0.0
  0
VERTEX
  8
Furniture
 10
3394.5467636906405
 20
1109.4816240209684
 30
0.0
  0
VERTEX
  8
Furniture
 10
3388.6286854248874
 20
1108.1238652901345
 30
0.0
  0
VERTEX
  8
Furniture
 10
3382.7323106950607
 20
1106.7461426338423
 30
0.0
  0
VERTEX
  8
Furniture
 10
3376.857955705843
 20
1105.3485299351764
 30
0.0
  0
VERTEX
  8
Furniture
 10
3371.005935481064
 20
1103.9311021438643
 30
0.0
  0
VERTEX
  8
Furniture
 10
3365.176563846809
 20
1102.493935272257
 30
0.0
  0
VERTEX
  8
Furniture
 10
3359.3701534145875
 20
1101.037106391252
 30
0.0
  0
VERTEX
  8
Furniture
 10
3353.587015564569
 20
1099.5606936261613
 30
0.0
  0
VERTEX
  8
Furniture
 10
3347.8274604288854
 20
1098.0647761525204
 30
0.0
  0
VERTEX
  8
Furniture
 10
3342.091796875
 20
1096.5494341918438
 30
0.0
  0
VERTEX
  8
Furniture
 10
3336.3803324891414
 20
1095.0147490073218
 30
0.0
  0
VERTEX
  8
Furniture
 10
3330.6933735598122
 20
1093.4608028994635
 30
0.0
  0
VERTEX
  8
Furniture
 10
3325.0312250613606
 20
1091.8876792016827
 30
0.0
  0
VERTEX
  8
Furniture
 10
3319.3941906376263
 20
1090.295462275829
 30
0.0
  0
VERTEX
  8
Furniture
 10
3313.7825725856583
 20
1088.6842375076642
 30
0.0
  0
VERTEX
  8
Furniture
 10
3308.196671839502
 20
1087.0540913022824
 30
0.0
  0
VERTEX
  8
Furniture
 10
3302.636787954062
 20
1085.4051110794778
 30
0.0
  0
VERTEX
  8
Furniture
 10
3297.1032190890387
 20
1083.7373852690553
 30
0.0
  0
VERTEX
  8
Furniture
 10
3291.5962619929355
 20
1082.0510033060884
 30
0.0
  0
VERTEX
  8
Furniture
 10
3286.11621198715
 20
1080.3460556261246
 30
0.0
  0
VERTEX
  8
Furniture
 10
3280.663362950132
 20
1078.622633660333
 30
0.0
  0
VERTEX
  8
Furniture
 10
3275.2380073016275
 20
1076.8808298306037
 30
0.0
  0
VERTEX
  8
Furniture
 10
3269.8404359869937
 20
1075.12073754459
 30
0.0
  0
VERTEX
  8
Furniture
 10
3264.470938461601
 20
1073.3424511906994
 30
0.0
  0
VERTEX
  8
Furniture
 10
3259.1298026753047
 20
1071.5460661330324
 30
0.0
  0
VERTEX
  8
Furniture
 10
3253.8173150570083
 20
1069.7316787062678
 30
0.0
  0
VERTEX
  8
Furniture
 10
3248.5337604992997
 20
1067.899386210497
 30
0.0
  0
VERTEX
  8
Furniture
 10
3243.2794223431756
 20
1066.0492869060058
 30
0.0
  0
VERTEX
  8
Furniture
 10
3238.054582362845
 20
1064.181480008005
 30
0.0
  0
VERTEX
  8
Furniture
 10
3232.8595207506196
 20
1062.2960656813102
 30
0.0
  0
VERTEX
  8
Furniture
 10
3227.694516101887
 20
1060.39314503497
 30
0.0
  0
VERTEX
  8
Furniture
 10
3222.559845400172
 20
1058.4728201168432
 30
0.0
  0
VERTEX
  8
Furniture
 10
3217.4557840022817
 20
1056.5351939081274
 30
0.0
  0
VERTEX
  8
Furniture
 10
3212.382605623538
 20
1054.580370317836
 30
0.0
  0
VERTEX
  8
Furniture
 10
3207.3405823231014
 20
1052.6084541772252
 30
0.0
  0
VERTEX
  8
Furniture
 10
3202.3299844893804
 20
1050.6195512341737
 30
0.0
  0
VERTEX
  8
Furniture
 10
3197.3510808255296
 20
1048.6137681475097
 30
0.0
  0
VERTEX
  8
Furniture
 10
3192.4041383350423
 20
1046.5912124812933
 30
0.0
  0
VERTEX
  8
Furniture
 10
3187.4894223074316
 20
1044.5519926990467
 30
0.0
  0
VERTEX
  8
Furniture
 10
3182.6071963040026
 20
1042.4962181579378
 30
0.0
  0
VERTEX
  8
Furniture
 10
3177.757722143719
 20
1040.4239991029167
 30
0.0
  0
VERTEX
  8
Furniture
 10
3172.941259889162
 20
1038.3354466608025
 30
0.0
  0
VERTEX
  8
Furniture
 10
3168.1580678325863
 20
1036.2306728343237
 30
0.0
  0
VERTEX
  8
Furniture
 10
3163.408402482065
 20
1034.1097904961134
 30
0.0
  0
VERTEX
  8
Furniture
 10
3158.692518547736
 20
1031.972913382655
 30
0.0
  0
VERTEX
  8
Furniture
 10
3154.010668928144
 20
1029.8201560881826
 30
0.0
  0
VERTEX
  8
Furniture
 10
3149.3631046966734
 20
1027.6516340585367
 30
0.0
  0
VERTEX
  8
Furniture
 10
3144.750075088091
 20
1025.4674635849728
 30
0.0
  0
VERTEX
  8
Furniture
 10
3140.171827485174
 20
1023.2677617979247
 30
0.0
  0
VERTEX
  8
Furniture
 10
3135.628607405448
 20
1021.0526466607234
 30
0.0
  0
VERTEX
  8
Furniture
 10
3131.120658488017
 20
1018.8222369632713
 30
0.0
  0
VERTEX
  8
Furniture
 10
3126.6482224805004
 20
1016.5766523156716
 30
0.0
  0
VERTEX
  8
Furniture
 10
3122.2115392260694
 20
1014.3160131418139
 30
0.0
  0
VERTEX
  8
Furniture
 10
3117.810846650581
 20
1012.0404406729162
 30
0.0
  0
VERTEX
  8
Furniture
 10
3113.4463807498237
 20
1009.7500569410242
 30
0.0
  0
VERTEX
  8
Furniture
 10
3109.118375576857
 20
1007.4449847724666
 30
0.0
  0
VERTEX
  8
Furniture
 10
3104.827063229465
 20
1005.125347781268
 30
0.0
  0
VERTEX
  8
Furniture
 10
3100.5726738377043
 20
1002.7912703625207
 30
0.0
  0
VERTEX
  8
Furniture
 10
3096.3554355515666
 20
1000.442877685713
 30
0.0
  0
VERTEX
  8
Furniture
 10
3092.1755745287433
 20
998.0802956880173
 30
0.0
  0
VERTEX
  8
Furniture
 10
3088.0333149224953
 20
995.7036510675358
 30
0.0
  0
VERTEX
  8
Furniture
 10
3083.9288788696344
 20
993.3130712765071
 30
0.0
  0
VERTEX
  8
Furniture
 10
3079.8624864786093
 20
990.90868451447
 30
0.0
  0
VERTEX
  8
Furniture
 10
3075.834355817704
 20
988.49061972139
 30
0.0
  0
VERTEX
  8
Furniture
 10
3071.84470290334
 20
986.0590065707432
 30
0.0
  0
VERTEX
  8
Furniture
 10
3067.893741688496
 20
983.6139754625634
 30
0.0
  0
VERTEX
  8
Furniture
 10
3063.9816840512312
 20
981.1556575164487
 30
0.0
  0
VERTEX
  8
Furniture
 10
3060.108739783324
 20
978.6841845645299
 30
0.0
  0
VERTEX
  8
Furniture
 10
3056.275116579022
 20
976.199689144401
 30
0.0
  0
VERTEX
  8
Furniture
 10
3052.4810200239026
 20
973.7023044920111
 30
0.0
  0
VERTEX
  8
Furniture
 10
3048.7266535838503
 20
971.1921645345199
 30
0.0
  0
VERTEX
  8
Furniture
 10
3045.0122185941427
 20
968.6694038831158
 30
0.0
  0
VERTEX
  8
Furniture
 10
3041.3379142486565
 20
966.1341578257961
 30
0.0
  0
VERTEX
  8
Furniture
 10
3037.703937589182
 20
963.5865623201128
 30
0.0
  0
VERTEX
  8
Furniture
 10
3034.1104834948587
 20
961.0267539858813
 30
0.0
  0
VERTEX
  8
Furniture
 10
3030.5577446717252
 20
958.4548700978543
 30
0.0
  0
VERTEX
  8
Furniture
 10
3027.0459116423817
 20
955.8710485783588
 30
0.0
  0
VERTEX
  8
Furniture
 10
3023.575172735776
 20
953.2754279899019
 30
0.0
  0
VERTEX
  8
Furniture
 10
3020.1457140771026
 20
950.6681475277383
 30
0.0
  0
VERTEX
  8
Furniture
 10
3016.757719577821
 20
948.0493470124065
 30
0.0
  0
VERTEX
  8
Furniture
 10
3013.4113709257945
 20
945.4191668822305
 30
0.0
  0
VERTEX
  8
Furniture
 10
3010.106847575546
 20
942.7777481857884
 30
0.0
  0
VERTEX
  8
Furniture
 10
3006.8443267386338
 20
940.1252325743487
 30
0.0
  0
VERTEX
  8
Furniture
 10
3003.623983374149
 20
937.4617622942739
 30
0.0
  0
VERTEX
  8
Furniture
 10
3000.4459901793325
 20
934.7874801793914
 30
0.0
  0
VERTEX
  8
Furniture
 10
2997.3105175803157
 20
932.1025296433354
 30
0.0
  0
VERTEX
  8
Furniture
 10
2994.217733722978
 20
929.4070546718547
 30
0.0
  0
VERTEX
  8
Furniture
 10
2991.1678044639316
 20
926.7011998150915
 30
0.0
  0
VERTEX
  8
Furniture
 10
2988.160893361626
 20
923.98511017983
 30
0.0
  0
VERTEX
  8
Furniture
 10
2985.1971616675796
 20
921.2589314217146
 30
0.0
  0
VERTEX
  8
Furniture
 10
2982.276768317727
 20
918.5228097374384
 30
0.0
  0
VERTEX
  8
Furniture
 10
2979.399869923902
 20
915.7768918569036
 30
0.0
  0
VERTEX
  8
Furniture
 10
2976.566620765433
 20
913.0213250353528
 30
0.0
  0
VERTEX
  8
Furniture
 10
2973.777172780875
 20
910.2562570454718
 30
0.0
  0
VERTEX
  8
Furniture
 10
2971.031675559858
 20
907.4818361694656
 30
0.0
  0
VERTEX
  8
Furniture
 10
2968.3302763350653
 20
904.6982111911057
 30
0.0
  0
VERTEX
  8
Furniture
 10
2965.673119974339
 20
901.9055313877517
 30
0.0
  0
VERTEX
  8
Furniture
 10
2963.060348972911
 20
899.1039465223463
 30
0.0
  0
VERTEX
  8
Furniture
 10
2960.4921034457607
 20
896.2936068353835
 30
0.0
  0
VERTEX
  8
Furniture
 10
2957.9685211201013
 20
893.4746630368516
 30
0.0
  0
VERTEX
  8
Furniture
 10
2955.4897373279946
 20
890.6472662981514
 30
0.0
  0
VERTEX
  8
Furniture
 10
2953.055884999092
 20
887.8115682439897
 30
0.0
  0
VERTEX
  8
Furniture
 10
2950.6670946535082
 20
884.9677209442468
 30
0.0
  0
VERTEX
  8
Furniture
 10
2948.3234943948196
 20
882.1158769058229
 30
0.0
  0
VERTEX
  8
Furniture
 10
2946.0252099031954
 20
879.256189064459
 30
0.0
  0
VERTEX
  8
Furniture
 10
2943.772364428658
 20
876.3888107765353
 30
0.0
  0
VERTEX
  8
Furniture
 10
2941.565078784474
 20
873.5138958108472
 30
0.0
  0
VERTEX
  8
Furniture
 10
2939.4034713406722
 20
870.6315983403596
 30
0.0
  0
VERTEX
  8
Furniture
 10
2937.2876580177012
 20
867.7420729339383
 30
0.0
  0
VERTEX
  8
Furniture
 10
2935.2177522802076
 20
864.8454745480617
 30
0.0
  0
VERTEX
  8
Furniture
 10
2933.193865130954
 20
861.9419585185105
 30
0.0
  0
VERTEX
  8
Furniture
 10
2931.2161051048665
 20
859.0316805520379
 30
0.0
  0
VERTEX
  8
Furniture
 10
2929.284578263213
 20
856.1147967180185
 30
0.0
  0
VERTEX
  8
Furniture
 10
2927.399388187916
 20
853.1914634400805
 30
0.0
  0
VERTEX
  8
Furniture
 10
2925.5606359759986
 20
850.2618374877154
 30
0.0
  0
VERTEX
  8
Furniture
 10
2923.7684202341607
 20
847.3260759678723
 30
0.0
  0
VERTEX
  8
Furniture
 10
2922.022837073494
 20
844.3843363165319
 30
0.0
  0
VERTEX
  8
Furniture
 10
2920.3239801043255
 20
841.4367762902639
 30
0.0
  0
VERTEX
  8
Furniture
 10
2918.671940431199
 20
838.4835539577671
 30
0.0
  0
VERTEX
  8
Furniture
 10
2917.066806647988
 20
835.5248276913928
 30
0.0
  0
VERTEX
  8
Furniture
 10
2915.5086648331467
 20
832.5607561586512
 30
0.0
  0
VERTEX
  8
Furniture
 10
2913.9975985450915
 20
829.5914983137034
 30
0.0
  0
VERTEX
  8
Furniture
 10
2912.5336888177217
 20
826.617213388836
 30
0.0
  0
VERTEX
  8
Furniture
 10
2911.117014156073
 20
823.6380608859233
 30
0.0
  0
VERTEX
  8
Furniture
 10
2909.7476505321083
 20
820.6542005678727
 30
0.0
  0
VERTEX
  8
Furniture
 10
2908.4256713806435
 20
817.6657924500576
 30
0.0
  0
VERTEX
  8
Furniture
 10
2907.151147595407
 20
814.6729967917358
 30
0.0
  0
VERTEX
  8
Furniture
 10
2905.924147525243
 20
811.675974087456
 30
0.0
  0
VERTEX
  8
Furniture
 10
2904.7447369704405
 20
808.6748850584503
 30
0.0
  0
VERTEX
  8
Furniture
 10
2903.612979179209
 20
805.6698906440154
 30
0.0
  0
VERTEX
  8
Furniture
 10
2902.528934844284
 20
802.6611519928821
 30
0.0
  0
VERTEX
  8
Furniture
 10
2901.492662099672
 20
799.6488304545733
 30
0.0
  0
VERTEX
  8
Furniture
 10
2900.5042165175373
 20
796.633087570751
 30
0.0
  0
VERTEX
  8
Furniture
 10
2899.5636511052153
 20
793.6140850665539
 30
0.0
  0
VERTEX
  8
Furniture
 10
2898.6710163023754
 20
790.5919848419242
 30
0.0
  0
VERTEX
  8
Furniture
 10
2897.826359978312
 20
787.566948962925
 30
0.0
  0
VERTEX
  8
Furniture
 10
2897.029727429382
 20
784.5391396530504
 30
0.0
  0
VERTEX
  8
Furniture
 10
2896.2811613765703
 20
781.5087192845244
 30
0.0
  0
VERTEX
  8
Furniture
 10
2895.580701963202
 20
778.4758503695947
 30
0.0
  0
VERTEX
  8
Furniture
 10
2894.928386752791
 20
775.440695551817
 30
0.0
  0
VERTEX
  8
Furniture
 10
2894.3242507270215
 20
772.403417597333
 30
0.0
  0
VERTEX
  8
Furniture
 10
2893.7683262838755
 20
769.3641793861414
 30
0.0
  0
VERTEX
  8
Furniture
 10
2893.2606432358934
 20
766.3231439033641
 30
0.0
  0
VERTEX
  8
Furniture
 10
2892.8012288085765
 20
763.280474230505
 30
0.0
  0
VERTEX
  8
Furniture
 10
2892.390107638926
 20
760.2363335367045
 30
0.0
  0
VERTEX
  8
Furniture
 10
2892.027301774123
 20
757.1908850699896
 30
0.0
  0
VERTEX
  8
Furniture
 10
2891.712830670345
 20
754.1442921485191
 30
0.0
  0
VERTEX
  8
Furniture
 10
2891.4467111917224
 20
751.0967181518254
 30
0.0
  0
VERTEX
  8
Furniture
 10
2891.2289576094354
 20
748.0483265120531
 30
0.0
  0
VERTEX
  8
Furniture
 10
2891.059581600948
 20
744.9992807051946
 30
0.0
  0
VERTEX
  8
Furniture
 10
2890.9385922493816
 20
741.9497442423228
 30
0.0
  0
VERTEX
  8
Furniture
 10
2890.8659960430273
 20
738.8998806608237
 30
0.0
  0
VERTEX
  8
Furniture
 10
2890.841796875
 20
735.849853515625
 30
0.0
  0
VERTEX
  8
Furniture
 10
2890.8659960430273
 20
732.7998263704264
 30
0.0
  0
VERTEX
  8
Furniture
 10
2890.9385922493816
 20
729.7499627889273
 30
0.0
  0
VERTEX
  8
Furniture
 10
2891.059581600948
 20
726.7004263260555
 30
0.0
  0
VERTEX
  8
Furniture
 10
2891.2289576094354
 20
723.651380519197
 30
0.0
  0
VERTEX
  8
Furniture
 10
2891.4467111917224
 20
720.6029888794247
 30
0.0
  0
VERTEX
  8
Furniture
 10
2891.712830670345
 20
717.555414882731
 30
0.0
  0
VERTEX
  8
Furniture
 10
2892.027301774123
 20
714.5088219612605
 30
0.0
  0
VERTEX
  8
Furniture
 10
2892.390107638926
 20
711.4633734945456
 30
0.0
  0
VERTEX
  8
Furniture
 10
2892.8012288085765
 20
708.4192328007451
 30
0.0
  0
VERTEX
  8
Furniture
 10
2893.2606432358934
 20
705.376563127886
 30
0.0
  0
VERTEX
  8
Furniture
 10
2893.7683262838755
 20
702.3355276451086
 30
0.0
  0
VERTEX
  8
Furniture
 10
2894.3242507270215
 20
699.2962894339171
 30
0.0
  0
VERTEX
  8
Furniture
 10
2894.928386752791
 20
696.259011479433
 30
0.0
  0
VERTEX
  8
Furniture
 10
2895.580701963202
 20
693.2238566616552
 30
0.0
  0
VERTEX
  8
Furniture
 10
2896.2811613765703
 20
690.1909877467256
 30
0.0
  0
VERTEX
  8
Furniture
 10
2897.029727429382
 20
687.1605673781996
 30
0.0
  0
VERTEX
  8
Furniture
 10
2897.826359978312
 20
684.1327580683248
 30
0.0
  0
VERTEX
  8
Furniture
 10
2898.6710163023754
 20
681.1077221893258
 30
0.0
  0
VERTEX
  8
Furniture
 10
2899.5636511052153
 20
678.085621964696
 30
0.0
  0
VERTEX
  8
Furniture
 10
2900.5042165175373
 20
675.0666194604989
 30
0.0
  0
VERTEX
  8
Furniture
 10
2901.492662099672
 20
672.0508765766767
 30
0.0
  0
VERTEX
  8
Furniture
 10
2902.528934844284
 20
669.0385550383678
 30
0.0
  0
VERTEX
  8
Furniture
 10
2903.612979179209
 20
666.0298163872345
 30
0.0
  0
VERTEX
  8
Furniture
 10
2904.7447369704405
 20
663.0248219727997
 30
0.0
  0
VERTEX
  8
Furniture
 10
2905.924147525243
 20
660.0237329437939
 30
0.0
  0
VERTEX
  8
Furniture
 10
2907.151147595407
 20
657.0267102395142
 30
0.0
  0
VERTEX
  8
Furniture
 10
2908.4256713806435
 20
654.0339145811924
 30
0.0
  0
VERTEX
  8
Furniture
 10
2909.7476505321083
 20
651.0455064633773
 30
0.0
  0
VERTEX
  8
Furniture
 10
2911.1170141560733
 20
648.0616461453267
 30
0.0
  0
VERTEX
  8
Furniture
 10
2912.5336888177217
 20
645.082493642414
 30
0.0
  0
VERTEX
  8
Furniture
 10
2913.9975985450915
 20
642.1082087175466
 30
0.0
  0
VERTEX
  8
Furniture
 10
2915.5086648331467
 20
639.1389508725987
 30
0.0
  0
VERTEX
  8
Furniture
 10
2917.066806647988
 20
636.1748793398572
 30
0.0
  0
VERTEX
  8
Furniture
 10
2918.671940431199
 20
633.2161530734828
 30
0.0
  0
VERTEX
  8
Furniture
 10
2920.3239801043255
 20
630.2629307409861
 30
0.0
  0
VERTEX
  8
Furniture
 10
2922.022837073494
 20
627.315370714718
 30
0.0
  0
VERTEX
  8
Furniture
 10
2923.7684202341607
 20
624.3736310633776
 30
0.0
  0
VERTEX
  8
Furniture
 10
2925.5606359759986
 20
621.4378695435345
 30
0.0
  0
VERTEX
  8
Furniture
 10
2927.399388187916
 20
618.5082435911695
 30
0.0
  0
VERTEX
  8
Furniture
 10
2929.284578263213
 20
615.5849103132314
 30
0.0
  0
VERTEX
  8
Furniture
 10
2931.2161051048665
 20
612.6680264792121
 30
0.0
  0
VERTEX
  8
Furniture
 10
2933.193865130954
 20
609.7577485127393
 30
0.0
  0
VERTEX
  8
Furniture
 10
2935.2177522802076
 20
606.8542324831882
 30
0.0
  0
VERTEX
  8
Furniture
 10
2937.2876580177012
 20
603.9576340973116
 30
0.0
  0
VERTEX
  8
Furniture
 10
2939.4034713406727
 20
601.0681086908903
 30
0.0
  0
VERTEX
  8
Furniture
 10
2941.565078784474
 20
598.1858112204027
 30
0.0
  0
VERTEX
  8
Furniture
 10
2943.7723644286584
 20
595.3108962547146
 30
0.0
  0
VERTEX
  8
Furniture
 10
2946.0252099031954
 20
592.4435179667909
 30
0.0
  0
VERTEX
  8
Furniture
 10
2948.3234943948196
 20
589.583830125427
 30
0.0
  0
VERTEX
  8
Furniture
 10
2950.6670946535082
 20
586.7319860870032
 30
0.0
  0
VERTEX
  8
Furniture
 10
2953.055884999092
 20
583.8881387872605
 30
0.0
  0
VERTEX
  8
Furniture
 10
2955.4897373279946
 20
581.0524407330986
 30
0.0
  0
VERTEX
  8
Furniture
 10
2957.9685211201013
 20
578.2250439943986
 30
0.0
  0
VERTEX
  8
Furniture
 10
2960.4921034457607
 20
575.4061001958667
 30
0.0
  0
VERTEX
  8
Furniture
 10
2963.060348972911
 20
572.5957605089038
 30
0.0
  0
VERTEX
  8
Furniture
 10
2965.673119974339
 20
569.7941756434984
 30
0.0
  0
VERTEX
  8
Furniture
 10
2968.3302763350653
 20
567.0014958401445
 30
0.0
  0
VERTEX
  8
Furniture
 10
2971.031675559858
 20
564.2178708617845
 30
0.0
  0
VERTEX
  8
Furniture
 10
2973.777172780875
 20
561.4434499857782
 30
0.0
  0
VERTEX
  8
Furniture
 10
2976.566620765433
 20
558.6783819958973
 30
0.0
  0
VERTEX
  8
Furniture
 10
2979.3998699239014
 20
555.9228151743465
 30
0.0
  0
VERTEX
  8
Furniture
 10
2982.276768317727
 20
553.1768972938117
 30
0.0
  0
VERTEX
  8
Furniture
 10
2985.197161667579
 20
550.4407756095355
 30
0.0
  0
VERTEX
  8
Furniture
 10
2988.160893361626
 20
547.7145968514201
 30
0.0
  0
VERTEX
  8
Furniture
 10
2991.1678044639316
 20
544.9985072161586
 30
0.0
  0
VERTEX
  8
Furniture
 10
2994.217733722978
 20
542.2926523593954
 30
0.0
  0
VERTEX
  8
Furniture
 10
2997.3105175803157
 20
539.5971773879146
 30
0.0
  0
VERTEX
  8
Furniture
 10
3000.4459901793325
 20
536.9122268518586
 30
0.0
  0
VERTEX
  8
Furniture
 10
3003.6239833741483
 20
534.2379447369763
 30
0.0
  0
VERTEX
  8
Furniture
 10
3006.8443267386333
 20
531.5744744569013
 30
0.0
  0
VERTEX
  8
Furniture
 10
3010.1068475755455
 20
528.9219588454616
 30
0.0
  0
VERTEX
  8
Furniture
 10
3013.4113709257945
 20
526.2805401490197
 30
0.0
  0
VERTEX
  8
Furniture
 10
3016.757719577821
 20
523.6503600188437
 30
0.0
  0
VERTEX
  8
Furniture
 10
3020.145714077102
 20
521.0315595035117
 30
0.0
  0
VERTEX
  8
Furniture
 10
3023.575172735776
 20
518.4242790413482
 30
0.0
  0
VERTEX
  8
Furniture
 10
3027.0459116423817
 20
515.8286584528912
 30
0.0
  0
VERTEX
  8
Furniture
 10
3030.5577446717252
 20
513.2448369333958
 30
0.0
  0
VERTEX
  8
Furniture
 10
3034.110483494859
 20
510.67295304536856
 30
0.0
  0
VERTEX
  8
Furniture
 10
3037.703937589182
 20
508.1131447111371
 30
0.0
  0
VERTEX
  8
Furniture
 10
3041.3379142486565
 20
505.56554920545386
 30
0.0
  0
VERTEX
  8
Furniture
 10
3045.0122185941427
 20
503.0303031481341
 30
0.0
  0
VERTEX
  8
Furniture
 10
3048.7266535838503
 20
500.50754249673
 30
0.0
  0
VERTEX
  8
Furniture
 10
3052.4810200239026
 20
497.9974025392389
 30
0.0
  0
VERTEX
  8
Furniture
 10
3056.275116579022
 20
495.50001788684904
 30
0.0
  0
VERTEX
  8
Furniture
 10
3060.108739783324
 20
493.01552246672003
 30
0.0
  0
VERTEX
  8
Furniture
 10
3063.9816840512312
 20
490.54404951480115
 30
0.0
  0
VERTEX
  8
Furniture
 10
3067.8937416884964
 20
488.08573156868647
 30
0.0
  0
VERTEX
  8
Furniture
 10
3071.84470290334
 20
485.64070046050676
 30
0.0
  0
VERTEX
  8
Furniture
 10
3075.834355817704
 20
483.2090873098599
 30
0.0
  0
VERTEX
  8
Furniture
 10
3079.8624864786098
 20
480.79102251677983
 30
0.0
  0
VERTEX
  8
Furniture
 10
3083.9288788696344
 20
478.3866357547429
 30
0.0
  0
VERTEX
  8
Furniture
 10
3088.0333149224953
 20
475.99605596371407
 30
0.0
  0
VERTEX
  8
Furniture
 10
3092.1755745287433
 20
473.6194113432327
 30
0.0
  0
VERTEX
  8
Furniture
 10
3096.355435551567
 20
471.2568293455369
 30
0.0
  0
VERTEX
  8
Furniture
 10
3100.5726738377043
 20
468.9084366687292
 30
0.0
  0
VERTEX
  8
Furniture
 10
3104.827063229465
 20
466.5743592499819
 30
0.0
  0
VERTEX
  8
Furniture
 10
3109.1183755768575
 20
464.2547222587834
 30
0.0
  0
VERTEX
  8
Furniture
 10
3113.4463807498237
 20
461.9496500902257
 30
0.0
  0
VERTEX
  8
Furniture
 10
3117.8108466505814
 20
459.6592663583337
 30
0.0
  0
VERTEX
  8
Furniture
 10
3122.2115392260694
 20
457.3836938894361
 30
0.0
  0
VERTEX
  8
Furniture
 10
3126.648222480501
 20
455.12305471557835
 30
0.0
  0
VERTEX
  8
Furniture
 10
3131.120658488017
 20
452.87747006797855
 30
0.0
  0
VERTEX
  8
Furniture
 10
3135.628607405448
 20
450.6470603705265
 30
0.0
  0
VERTEX
  8
Furniture
 10
3140.171827485174
 20
448.4319452333253
 30
0.0
  0
VERTEX
  8
Furniture
 10
3144.750075088091
 20
446.23224344627715
 30
0.0
  0
VERTEX
  8
Furniture
 10
3149.3631046966734
 20
444.0480729727132
 30
0.0
  0
VERTEX
  8
Furniture
 10
3154.010668928144
 20
441.8795509430674
 30
0.0
  0
VERTEX
  8
Furniture
 10
3158.692518547736
 20
439.726793648595
 30
0.0
  0
VERTEX
  8
Furniture
 10
3163.408402482065
 20
437.5899165351364
 30
0.0
  0
VERTEX
  8
Furniture
 10
3168.1580678325868
 20
435.46903419692615
 30
0.0
  0
VERTEX
  8
Furniture
 10
3172.9412598891627
 20
433.3642603704475
 30
0.0
  0
VERTEX
  8
Furniture
 10
3177.757722143719
 20
431.27570792833313
 30
0.0
  0
VERTEX
  8
Furniture
 10
3182.607196304003
 20
429.20348887331204
 30
0.0
  0
VERTEX
  8
Furniture
 10
3187.489422307432
 20
427.1477143322033
 30
0.0
  0
VERTEX
  8
Furniture
 10
3192.4041383350427
 20
425.1084945499566
 30
0.0
  0
VERTEX
  8
Furniture
 10
3197.351080825529
 20
423.08593888374037
 30
0.0
  0
VERTEX
  8
Furniture
 10
3202.32998448938
 20
421.08015579707643
 30
0.0
  0
VERTEX
  8
Furniture
 10
3207.3405823231014
 20
419.09125285402473
 30
0.0
  0
VERTEX
  8
Furniture
 10
3212.382605623538
 20
417.11933671341393
 30
0.0
  0
VERTEX
  8
Furniture
 10
3217.4557840022812
 20
415.16451312312256
 30
0.0
  0
VERTEX
  8
Furniture
 10
3222.559845400172
 20
413.22688691440675
 30
0.0
  0
VERTEX
  8
Furniture
 10
3227.6945161018866
 20
411.3065619962801
 30
0.0
  0
VERTEX
  8
Furniture
 10
3232.8595207506196
 20
409.4036413499396
 30
0.0
  0
VERTEX
  8
Furniture
 10
3238.0545823628445
 20
407.51822702324506
 30
0.0
  0
VERTEX
  8
Furniture
 10
3243.2794223431756
 20
405.65042012524424
 30
0.0
  0
VERTEX
  8
Furniture
 10
3248.533760499299
 20
403.80032082075314
 30
0.0
  0
VERTEX
  8
Furniture
 10
3253.8173150570083
 20
401.96802832498224
 30
0.0
  0
VERTEX
  8
Furniture
 10
3259.1298026753043
 20
400.15364089821776
 30
0.0
  0
VERTEX
  8
Furniture
 10
3264.470938461601
 20
398.35725584055064
 30
0.0
  0
VERTEX
  8
Furniture
 10
3269.8404359869937
 20
396.5789694866602
 30
0.0
  0
VERTEX
  8
Furniture
 10
3275.2380073016275
 20
394.8188772006463
 30
0.0
  0
VERTEX
  8
Furniture
 10
3280.6633629501316
 20
393.0770733709171
 30
0.0
  0
VERTEX
  8
Furniture
 10
3286.11621198715
 20
391.35365140512545
 30
0.0
  0
VERTEX
  8
Furniture
 10
3291.5962619929355
 20
389.64870372516157
 30
0.0
  0
VERTEX
  8
Furniture
 10
3297.1032190890387
 20
387.96232176219473
 30
0.0
  0
VERTEX
  8
Furniture
 10
3302.636787954062
 20
386.2945959517722
 30
0.0
  0
VERTEX
  8
Furniture
 10
3308.196671839502
 20
384.64561572896747
 30
0.0
  0
VERTEX
  8
Furniture
 10
3313.782572585658
 20
383.0154695235859
 30
0.0
  0
VERTEX
  8
Furniture
 10
3319.3941906376263
 20
381.40424475542096
 30
0.0
  0
VERTEX
  8
Furniture
 10
3325.0312250613606
 20
379.81202782956734
 30
0.0
  0
VERTEX
  8
Furniture
 10
3330.6933735598127
 20
378.2389041317864
 30
0.0
  0
VERTEX
  8
Furniture
 10
3336.380332489142
 20
376.6849580239282
 30
0.0
  0
VERTEX
  8
Furniture
 10
3342.0917968750005
 20
375.15027283940617
 30
0.0
  0
VERTEX
  8
Furniture
 10
3347.8274604288854
 20
373.63493087872956
 30
0.0
  0
VERTEX
  8
Furniture
 10
3353.5870155645694
 20
372.13901340508863
 30
0.0
  0
VERTEX
  8
Furniture
 10
3359.3701534145875
 20
370.66260063999783
 30
0.0
  0
VERTEX
  8
Furniture
 10
3365.1765638468096
 20
369.20577175899285
 30
0.0
  0
VERTEX
  8
Furniture
 10
3371.005935481064
 20
367.7686048873856
 30
0.0
  0
VERTEX
  8
Furniture
 10
3376.857955705843
 20
366.3511770960737
 30
0.0
  0
VERTEX
  8
Furniture
 10
3382.732310695061
 20
364.9535643974077
 30
0.0
  0
VERTEX
  8
Furniture
 10
3388.6286854248874
 20
363.57584174111554
 30
0.0
  0
VERTEX
  8
Furniture
 10
3394.5467636906405
 20
362.21808301028165
 30
0.0
  0
VERTEX
  8
Furniture
 10
3400.4862281237433
 20
360.8803610173866
 30
0.0
  0
VERTEX
  8
Furniture
 10
3406.446760208744
 20
359.5627475004007
 30
0.0
  0
VERTEX
  8
Furniture
 10
3412.428040300394
 20
358.2653131189385
 30
0.0
  0
VERTEX
  8
Furniture
 10
3418.4297476407974
 20
356.988127450468
 30
0.0
  0
VERTEX
  8
Furniture
 10
3424.4515603766017
 20
355.73125898658094
 30
0.0
  0
VERTEX
  8
Furniture
 10
3430.493155576266
 20
354.4947751293182
 30
0.0
  0
VERTEX
  8
Furniture
 10
3436.554209247374
 20
353.278742187557
 30
0.0
  0
VERTEX
  8
Furniture
 10
3442.634396354013
 20
352.083225373453
 30
0.0
  0
VERTEX
  8
Furniture
 10
3448.7333908341993
 20
350.9082887989452
 30
0.0
  0
VERTEX
  8
Furniture
 10
3454.850865617371
 20
349.753995472316
 30
0.0
  0
VERTEX
  8
Furniture
 10
3460.9864926419177
 20
348.6204072948137
 30
0.0
  0
VERTEX
  8
Furniture
 10
3467.1399428727855
 20
347.50758505733177
 30
0.0
  0
VERTEX
  8
Furniture
 10
3473.3108863191114
 20
346.4155884371497
 30
0.0
  0
VERTEX
  8
Furniture
 10
3479.498992051928
 20
345.3444759947321
 30
0.0
  0
VERTEX
  8
Furniture
 10
3485.7039282219025
 20
344.2943051705887
 30
0.0
  0
VERTEX
  8
Furniture
 10
3491.9253620771415
 20
343.2651322821936
 30
0.0
  0
VERTEX
  8
Furniture
 10
3498.1629599810267
 20
342.2570125209656
 30
0.0
  0
VERTEX
  8
Furniture
 10
3504.416387430114
 20
341.26999994930765
 30
0.0
  0
VERTEX
  8
Furniture
 10
3510.6853090720656
 20
340.304147497709
 30
0.0
  0
VERTEX
  8
Furniture
 10
3516.9693887236413
 20
339.359506961905
 30
0.0
  0
VERTEX
  8
Furniture
 10
3523.2682893887186
 20
338.43612900010106
 30
0.0
  0
VERTEX
  8
Furniture
 10
3529.581673276373
 20
337.5340631302548
 30
0.0
  0
VERTEX
  8
Furniture
 10
3535.909201818984
 20
336.6533577274213
 30
0.0
  0
VERTEX
  8
Furniture
 10
3542.2505356904016
 20
335.7940600211584
 30
0.0
  0
VERTEX
  8
Furniture
 10
3548.6053348241335
 20
334.95621609299434
 30
0.0
  0
VERTEX
  8
Furniture
 10
3554.9732584315893
 20
334.1398708739561
 30
0.0
  0
VERTEX
  8
Furniture
 10
3561.3539650203497
 20
333.3450681421605
 30
0.0
  0
VERTEX
  8
Furniture
 10
3567.7471124124872
 20
332.5718505204659
 30
0.0
  0
VERTEX
  8
Furniture
 10
3574.1523577629073
 20
331.82025947418674
 30
0.0
  0
VERTEX
  8
Furniture
 10
3580.5693575777423
 20
331.0903353088698
 30
0.0
  0
VERTEX
  8
Furniture
 10
3586.997767732765
 20
330.382117168133
 30
0.0
  0
VERTEX
  8
Furniture
 10
3593.43724349185
 20
329.69564303156574
 30
0.0
  0
VERTEX
  8
Furniture
 10
3599.887439525453
 20
329.03094971269275
 30
0.0
  0
VERTEX
  8
Furniture
 10
3606.3480099291382
 20
328.3880728569994
 30
0.0
  0
VERTEX
  8
Furniture
 10
3612.81860824212
 20
327.76704694002046
 30
0.0
  0
VERTEX
  8
Furniture
 10
3619.298887465849
 20
327.1679052654911
 30
0.0
  0
VERTEX
  8
Furniture
 10
3625.7885000826163
 20
326.5906799635612
 30
0.0
  0
VERTEX
  8
Furniture
 10
3632.2870980741936
 20
326.03540198907166
 30
0.0
  0
VERTEX
  8
Furniture
 10
3638.794332940491
 20
325.50210111989526
 30
0.0
  0
VERTEX
  8
Furniture
 10
3645.309855718253
 20
324.990805955339
 30
0.0
  0
VERTEX
  8
Furniture
 10
3651.833316999765
 20
324.501543914611
 30
0.0
  0
VERTEX
  8
Furniture
 10
3658.364366951597
 20
324.03434123534953
 30
0.0
  0
VERTEX
  8
Furniture
 10
3664.90265533336
 20
323.5892229722165
 30
0.0
  0
VERTEX
  8
Furniture
 10
3671.4478315164924
 20
323.1662129955534
 30
0.0
  0
VERTEX
  8
Furniture
 10
3677.9995445030568
 20
322.76533399010157
 30
0.0
  0
VERTEX
  8
Furniture
 10
3684.5574429445714
 20
322.3866074537854
 30
0.0
  0
VERTEX
  8
Furniture
 10
3691.121175160843
 20
322.03005369655983
 30
0.0
  0
VERTEX
  8
Furniture
 10
3697.6903891588345
 20
321.6956918393206
 30
0.0
  0
VERTEX
  8
Furniture
 10
3704.264732651534
 20
321.38353981287946
 30
0.0
  0
VERTEX
  8
Furniture
 10
3710.8438530768535
 20
321.0936143570022
 30
0.0
  0
VERTEX
  8
Furniture
 10
3717.42739761653
 20
320.82593101951124
 30
0.0
  0
VERTEX
  8
Furniture
 10
3724.0150132150516
 20
320.5805041554515
 30
0.0
  0
VERTEX
  8
Furniture
 10
3730.606346598584
 20
320.3573469263209
 30
0.0
  0
VERTEX
  8
Furniture
 10
3737.2010442939236
 20
320.1564712993643
 30
0.0
  0
VERTEX
  8
Furniture
 10
3743.7987526474444
 20
319.97788804693215
 30
0.0
  0
VERTEX
  8
Furniture
 10
3750.399117844073
 20
319.8216067459021
 30
0.0
  0
VERTEX
  8
Furniture
 10
3757.001785926253
 20
319.68763577716624
 30
0.0
  0
VERTEX
  8
Furniture
 10
3763.6064028129344
 20
319.5759823251808
 30
0.0
  0
VERTEX
  8
Furniture
 10
3770.2126143185565
 20
319.4866523775818
 30
0.0
  0
VERTEX
  8
Furniture
 10
3776.8200661720457
 20
319.419650724863
 30
0.0
  0
VERTEX
  8
Furniture
 10
3783.4284040358125
 20
319.3749809601199
 30
0.0
  0
VERTEX
  8
Furniture
 10
3790.037273524751
 20
319.3526454788563
 30
0.0
  0
VERTEX
  8
Furniture
 10
3796.6463202252485
 20
319.3526454788563
 30
0.0
  0
VERTEX
  8
Furniture
 10
3803.255189714187
 20
319.3749809601199
 30
0.0
  0
VERTEX
  8
Furniture
 10
3809.863527577954
 20
319.419650724863
 30
0.0
  0
VERTEX
  8
Furniture
 10
3816.470979431443
 20
319.4866523775818
 30
0.0
  0
VERTEX
  8
Furniture
 10
3823.077190937066
 20
319.5759823251808
 30
0.0
  0
VERTEX
  8
Furniture
 10
3829.681807823747
 20
319.6876357771662
 30
0.0
  0
VERTEX
  8
Furniture
 10
3836.2844759059276
 20
319.8216067459021
 30
0.0
  0
VERTEX
  8
Furniture
 10
3842.884841102555
 20
319.97788804693215
 30
0.0
  0
VERTEX
  8
Furniture
 10
3849.4825494560773
 20
320.15647129936434
 30
0.0
  0
VERTEX
  8
Furniture
 10
3856.0772471514156
 20
320.3573469263209
 30
0.0
  0
VERTEX
  8
Furniture
 10
3862.668580534949
 20
320.5805041554515
 30
0.0
  0
VERTEX
  8
Furniture
 10
3869.2561961334695
 20
320.8259310195112
 30
0.0
  0
VERTEX
  8
Furniture
 10
3875.839740673147
 20
321.09361435700225
 30
0.0
  0
VERTEX
  8
Furniture
 10
3882.4188610984656
 20
321.38353981287946
 30
0.0
  0
VERTEX
  8
Furniture
 10
3888.993204591166
 20
321.6956918393206
 30
0.0
  0
VERTEX
  8
Furniture
 10
3895.5624185891566
 20
322.03005369655983
 30
0.0
  0
VERTEX
  8
Furniture
 10
3902.126150805429
 20
322.3866074537855
 30
0.0
  0
VERTEX
  8
Furniture
 10
3908.684049246943
 20
322.76533399010157
 30
0.0
  0
VERTEX
  8
Furniture
 10
3915.2357622335085
 20
323.1662129955534
 30
0.0
  0
VERTEX
  8
Furniture
 10
3921.7809384166394
 20
323.5892229722164
 30
0.0
  0
VERTEX
  8
Furniture
 10
3928.3192267984036
 20
324.03434123534953
 30
0.0
  0
VERTEX
  8
Furniture
 10
3934.850276750235
 20
324.5015439146109
 30
0.0
  0
VERTEX
  8
Furniture
 10
3941.3737380317475
 20
324.990805955339
 30
0.0
  0
VERTEX
  8
Furniture
 10
3947.8892608095084
 20
325.5021011198952
 30
0.0
  0
VERTEX
  8
Furniture
 10
3954.396495675807
 20
326.03540198907166
 30
0.0
  0
VERTEX
  8
Furniture
 10
3960.895093667383
 20
326.5906799635612
 30
0.0
  0
VERTEX
  8
Furniture
 10
3967.3847062841514
 20
327.16790526549113
 30
0.0
  0
VERTEX
  8
Furniture
 10
3973.8649855078797
 20
327.7670469400204
 30
0.0
  0
VERTEX
  8
Furniture
 10
3980.335583820862
 20
328.38807285699943
 30
0.0
  0
VERTEX
  8
Furniture
 10
3986.7961542245466
 20
329.0309497126927
 30
0.0
  0
VERTEX
  8
Furniture
 10
3993.2463502581504
 20
329.69564303156574
 30
0.0
  0
VERTEX
  8
Furniture
 10
3999.685826017235
 20
330.382117168133
 30
0.0
  0
VERTEX
  8
Furniture
 10
4006.114236172258
 20
331.09033530886984
 30
0.0
  0
VERTEX
  8
Furniture
 10
4012.5312359870923
 20
331.82025947418674
 30
0.0
  0
VERTEX
  8
Furniture
 10
4018.936481337513
 20
332.571850520466
 30
0.0
  0
VERTEX
  8
Furniture
 10
4025.32962872965
 20
333.3450681421605
 30
0.0
  0
VERTEX
  8
Furniture
 10
4031.710335318411
 20
334.13987087395617
 30
0.0
  0
VERTEX
  8
Furniture
 10
4038.078258925866
 20
334.9562160929943
 30
0.0
  0
VERTEX
  8
Furniture
 10
4044.433058059599
 20
335.79406002115843
 30
0.0
  0
VERTEX
  8
Furniture
 10
4050.7743919310155
 20
336.6533577274212
 30
0.0
  0
VERTEX
  8
Furniture
 10
4057.1019204736276
 20
337.5340631302549
 30
0.0
  0
VERTEX
  8
Furniture
 10
4063.415304361281
 20
338.43612900010106
 30
0.0
  0
VERTEX
  8
Furniture
 10
4069.714205026359
 20
339.3595069619051
 30
0.0
  0
VERTEX
  8
Furniture
 10
4075.998284677934
 20
340.3041474977089
 30
0.0
  0
VERTEX
  8
Furniture
 10
4082.2672063198866
 20
341.26999994930776
 30
0.0
  0
VERTEX
  8
Furniture
 10
4088.520633768973
 20
342.2570125209655
 30
0.0
  0
VERTEX
  8
Furniture
 10
4094.758231672859
 20
343.2651322821937
 30
0.0
  0
VERTEX
  8
Furniture
 10
4100.979665528097
 20
344.2943051705887
 30
0.0
  0
VERTEX
  8
Furniture
 10
4107.184601698073
 20
345.34447599473214
 30
0.0
  0
VERTEX
  8
Furniture
 10
4113.372707430888
 20
346.41558843714967
 30
0.0
  0
VERTEX
  8
Furniture
 10
4119.543650877215
 20
347.5075850573318
 30
0.0
  0
VERTEX
  8
Furniture
 10
4125.697101108082
 20
348.6204072948136
 30
0.0
  0
VERTEX
  8
Furniture
 10
4131.83272813263
 20
349.7539954723161
 30
0.0
  0
VERTEX
  8
Furniture
 10
4137.9502029158
 20
350.90828879894514
 30
0.0
  0
VERTEX
  8
Furniture
 10
4144.049197395988
 20
352.08322537345305
 30
0.0
  0
VERTEX
  8
Furniture
 10
4150.129384502626
 20
353.2787421875569
 30
0.0
  0
VERTEX
  8
Furniture
 10
4156.190438173735
 20
354.4947751293183
 30
0.0
  0
VERTEX
  8
Furniture
 10
4162.232033373398
 20
355.7312589865808
 30
0.0
  0
VERTEX
  8
Furniture
 10
4168.253846109203
 20
356.9881274504681
 30
0.0
  0
VERTEX
  8
Furniture
 10
4174.255553449605
 20
358.2653131189385
 30
0.0
  0
VERTEX
  8
Furniture
 10
4180.236833541256
 20
359.5627475004007
 30
0.0
  0
VERTEX
  8
Furniture
 10
4186.197365626256
 20
360.8803610173865
 30
0.0
  0
VERTEX
  8
Furniture
 10
4192.1368300593585
 20
362.2180830102816
 30
0.0
  0
VERTEX
  8
Furniture
 10
4198.054908325113
 20
363.5758417411154
 30
0.0
  0
VERTEX
  8
Furniture
 10
4203.951283054938
 20
364.95356439740766
 30
0.0
  0
VERTEX
  8
Furniture
 10
4209.825638044157
 20
366.3511770960736
 30
0.0
  0
VERTEX
  8
Furniture
 10
4215.677658268935
 20
367.76860488738555
 30
0.0
  0
VERTEX
  8
Furniture
 10
4221.50702990319
 20
369.2057717589929
 30
0.0
  0
VERTEX
  8
Furniture
 10
4227.313440335412
 20
370.6626006399978
 30
0.0
  0
VERTEX
  8
Furniture
 10
4233.096578185431
 20
372.1390134050887
 30
0.0
  0
VERTEX
  8
Furniture
 10
4238.856133321114
 20
373.6349308787295
 30
0.0
  0
VERTEX
  8
Furniture
 10
4244.591796875
 20
375.1502728394063
 30
0.0
  0
VERTEX
  8
Furniture
 10
4250.303261260858
 20
376.6849580239281
 30
0.0
  0
VERTEX
  8
Furniture
 10
4255.990220190188
 20
378.2389041317865
 30
0.0
  0
VERTEX
  8
Furniture
 10
4261.652368688639
 20
379.8120278295673
 30
0.0
  0
VERTEX
  8
Furniture
 10
4267.289403112374
 20
381.404244755421
 30
0.0
  0
VERTEX
  8
Furniture
 10
4272.901021164342
 20
383.01546952358586
 30
0.0
  0
VERTEX
  8
Furniture
 10
4278.4869219104985
 20
384.6456157289676
 30
0.0
  0
VERTEX
  8
Furniture
 10
4284.046805795938
 20
386.2945959517721
 30
0.0
  0
VERTEX
  8
Furniture
 10
4289.580374660962
 20
387.96232176219485
 30
0.0
  0
VERTEX
  8
Furniture
 10
4295.087331757064
 20
389.64870372516145
 30
0.0
  0
VERTEX
  8
Furniture
 10
4300.56738176285
 20
391.3536514051256
 30
0.0
  0
VERTEX
  8
Furniture
 10
4306.020230799868
 20
393.077073370917
 30
0.0
  0
VERTEX
  8
Furniture
 10
4311.445586448373
 20
394.8188772006464
 30
0.0
  0
VERTEX
  8
Furniture
 10
4316.843157763006
 20
396.57896948666007
 30
0.0
  0
VERTEX
  8
Furniture
 10
4322.2126552884
 20
398.35725584055075
 30
0.0
  0
VERTEX
  8
Furniture
 10
4327.553791074695
 20
400.15364089821765
 30
0.0
  0
VERTEX
  8
Furniture
 10
4332.866278692993
 20
401.96802832498236
 30
0.0
  0
VERTEX
  8
Furniture
 10
4338.1498332507
 20
403.80032082075303
 30
0.0
  0
VERTEX
  8
Furniture
 10
4343.404171406824
 20
405.6504201252444
 30
0.0
  0
VERTEX
  8
Furniture
 10
4348.629011387155
 20
407.51822702324495
 30
0.0
  0
VERTEX
  8
Furniture
 10
4353.824072999381
 20
409.4036413499398
 30
0.0
  0
VERTEX
  8
Furniture
 10
4358.989077648113
 20
411.30656199628
 30
0.0
  0
VERTEX
  8
Furniture
 10
4364.123748349828
 20
413.2268869144069
 30
0.0
  0
VERTEX
  8
Furniture
 10
4369.227809747718
 20
415.1645131231225
 30
0.0
  0
VERTEX
  8
Furniture
 10
4374.3009881264625
 20
417.1193367134141
 30
0.0
  0
VERTEX
  8
Furniture
 10
4379.343011426899
 20
419.0912528540246
 30
0.0
  0
VERTEX
  8
Furniture
 10
4384.35360926062
 20
421.08015579707643
 30
0.0
  0
VERTEX
  8
Furniture
 10
4389.33251292447
 20
423.08593888374025
 30
0.0
  0
VERTEX
  8
Furniture
 10
4394.279455414958
 20
425.1084945499568
 30
0.0
  0
VERTEX
  8
Furniture
 10
4399.194171442568
 20
427.14771433220335
 30
0.0
  0
VERTEX
  8
Furniture
 10
4404.076397445998
 20
429.2034888733122
 30
0.0
  0
VERTEX
  8
Furniture
 10
4408.925871606281
 20
431.27570792833313
 30
0.0
  0
VERTEX
  8
Furniture
 10
4413.742333860838
 20
433.36426037044765
 30
0.0
  0
VERTEX
  8
Furniture
 10
4418.525525917414
 20
435.4690341969262
 30
0.0
  0
VERTEX
  8
Furniture
 10
4423.275191267935
 20
437.5899165351365
 30
0.0
  0
VERTEX
  8
Furniture
 10
4427.991075202263
 20
439.726793648595
 30
0.0
  0
VERTEX
  8
Furniture
 10
4432.672924821856
 20
441.87955094306756
 30
0.0
  0
VERTEX
  8
Furniture
 10
4437.320489053326
 20
444.04807297271327
 30
0.0
  0
VERTEX
  8
Furniture
 10
4441.933518661909
 20
446.23224344627727
 30
0.0
  0
VERTEX
  8
Furniture
 10
4446.511766264825
 20
448.4319452333253
 30
0.0
  0
VERTEX
  8
Furniture
 10
4451.054986344552
 20
450.6470603705266
 30
0.0
  0
VERTEX
  8
Furniture
 10
4455.5629352619835
 20
452.8774700679786
 30
0.0
  0
VERTEX
  8
Furniture
 10
4460.0353712695
 20
455.12305471557846
 30
0.0
  0
VERTEX
  8
Furniture
 10
4464.472054523931
 20
457.38369388943613
 30
0.0
  0
VERTEX
  8
Furniture
 10
4468.872747099419
 20
459.6592663583339
 30
0.0
  0
VERTEX
  8
Furniture
 10
4473.237213000177
 20
461.9496500902257
 30
0.0
  0
VERTEX
  8
Furniture
 10
4477.565218173143
 20
464.2547222587835
 30
0.0
  0
VERTEX
  8
Furniture
 10
4481.856530520535
 20
466.57435924998197
 30
0.0
  0
VERTEX
  8
Furniture
 10
4486.110919912297
 20
468.90843666872945
 30
0.0
  0
VERTEX
  8
Furniture
 10
4490.328158198433
 20
471.25682934553697
 30
0.0
  0
VERTEX
  8
Furniture
 10
4494.508019221257
 20
473.61941134323285
 30
0.0
  0
VERTEX
  8
Furniture
 10
4498.650278827505
 20
475.9960559637141
 30
0.0
  0
VERTEX
  8
Furniture
 10
4502.754714880366
 20
478.38663575474305
 30
0.0
  0
VERTEX
  8
Furniture
 10
4506.82110727139
 20
480.7910225167799
 30
0.0
  0
VERTEX
  8
Furniture
 10
4510.849237932296
 20
483.20908730985985
 30
0.0
  0
VERTEX
  8
Furniture
 10
4514.8388908466595
 20
485.64070046050676
 30
0.0
  0
VERTEX
  8
Furniture
 10
4518.789852061504
 20
488.08573156868636
 30
0.0
  0
VERTEX
  8
Furniture
 10
4522.701909698769
 20
490.54404951480126
 30
0.0
  0
VERTEX
  8
Furniture
 10
4526.574853966676
 20
493.01552246671986
 30
0.0
  0
VERTEX
  8
Furniture
 10
4530.408477170979
 20
495.50001788684904
 30
0.0
  0
VERTEX
  8
Furniture
 10
4534.202573726097
 20
497.9974025392388
 30
0.0
  0
VERTEX
  8
Furniture
 10
4537.95694016615
 20
500.50754249673
 30
0.0
  0
VERTEX
  8
Furniture
 10
4541.671375155856
 20
503.03030314813407
 30
0.0
  0
VERTEX
  8
Furniture
 10
4545.3456795013435
 20
505.56554920545386
 30
0.0
  0
VERTEX
  8
Furniture
 10
4548.979656160818
 20
508.113144711137
 30
0.0
  0
VERTEX
  8
Furniture
 10
4552.573110255141
 20
510.6729530453687
 30
0.0
  0
VERTEX
  8
Furniture
 10
4556.125849078275
 20
513.2448369333957
 30
0.0
  0
VERTEX
  8
Furniture
 10
4559.637682107618
 20
515.8286584528912
 30
0.0
  0
VERTEX
  8
Furniture
 10
4563.1084210142235
 20
518.4242790413481
 30
0.0
  0
VERTEX
  8
Furniture
 10
4566.537879672897
 20
521.0315595035119
 30
0.0
  0
VERTEX
  8
Furniture
 10
4569.925874172179
 20
523.6503600188435
 30
0.0
  0
VERTEX
  8
Furniture
 10
4573.2722228242055
 20
526.2805401490197
 30
0.0
  0
VERTEX
  8
Furniture
 10
4576.5767461744545
 20
528.9219588454615
 30
0.0
  0
VERTEX
  8
Furniture
 10
4579.839267011366
 20
531.5744744569013
 30
0.0
  0
VERTEX
  8
Furniture
 10
4583.059610375852
 20
534.2379447369761
 30
0.0
  0
VERTEX
  8
Furniture
 10
4586.2376035706675
 20
536.9122268518587
 30
0.0
  0
VERTEX
  8
Furniture
 10
4589.373076169684
 20
539.5971773879145
 30
0.0
  0
VERTEX
  8
Furniture
 10
4592.465860027022
 20
542.2926523593954
 30
0.0
  0
VERTEX
  8
Furniture
 10
4595.515789286068
 20
544.9985072161585
 30
0.0
  0
VERTEX
  8
Furniture
 10
4598.522700388374
 20
547.7145968514201
 30
0.0
  0
VERTEX
  8
Furniture
 10
4601.486432082421
 20
550.4407756095354
 30
0.0
  0
VERTEX
  8
Furniture
 10
4604.406825432273
 20
553.1768972938119
 30
0.0
  0
VERTEX
  8
Furniture
 10
4607.283723826098
 20
555.9228151743464
 30
0.0
  0
VERTEX
  8
Furniture
 10
4610.116972984567
 20
558.6783819958973
 30
0.0
  0
VERTEX
  8
Furniture
 10
4612.906420969125
 20
561.4434499857781
 30
0.0
  0
VERTEX
  8
Furniture
 10
4615.651918190142
 20
564.2178708617846
 30
0.0
  0
VERTEX
  8
Furniture
 10
4618.353317414934
 20
567.0014958401443
 30
0.0
  0
VERTEX
  8
Furniture
 10
4621.010473775661
 20
569.7941756434984
 30
0.0
  0
VERTEX
  8
Furniture
 10
4623.623244777089
 20
572.5957605089036
 30
0.0
  0
VERTEX
  8
Furniture
 10
4626.19149030424
 20
575.4061001958667
 30
0.0
  0
VERTEX
  8
Furniture
 10
4628.715072629899
 20
578.2250439943984
 30
0.0
  0
VERTEX
  8
Furniture
 10
4631.193856422005
 20
581.0524407330987
 30
0.0
  0
VERTEX
  8
Furniture
 10
4633.627708750908
 20
583.8881387872603
 30
0.0
  0
VERTEX
  8
Furniture
 10
4636.016499096492
 20
586.7319860870034
 30
0.0
  0
VERTEX
  8
Furniture
 10
4638.360099355181
 20
589.583830125427
 30
0.0
  0
VERTEX
  8
Furniture
 10
4640.658383846805
 20
592.4435179667911
 30
0.0
  0
VERTEX
  8
Furniture
 10
4642.911229321342
 20
595.3108962547146
 30
0.0
  0
VERTEX
  8
Furniture
 10
4645.118514965527
 20
598.1858112204029
 30
0.0
  0
VERTEX
  8
Furniture
 10
4647.280122409327
 20
601.0681086908904
 30
0.0
  0
VERTEX
  8
Furniture
 10
4649.395935732299
 20
603.9576340973118
 30
0.0
  0
VERTEX
  8
Furniture
 10
4651.465841469792
 20
606.8542324831882
 30
0.0
  0
VERTEX
  8
Furniture
 10
4653.489728619046
 20
609.7577485127395
 30
0.0
  0
VERTEX
  8
Furniture
 10
4655.467488645134
 20
612.6680264792121
 30
0.0
  0
VERTEX
  8
Furniture
 10
4657.399015486787
 20
615.5849103132316
 30
0.0
  0
VERTEX
  8
Furniture
 10
4659.284205562084
 20
618.5082435911695
 30
0.0
  0
VERTEX
  8
Furniture
 10
4661.122957774001
 20
621.4378695435347
 30
0.0
  0
VERTEX
  8
Furniture
 10
4662.915173515839
 20
624.3736310633776
 30
0.0
  0
VERTEX
  8
Furniture
 10
4664.660756676506
 20
627.3153707147183
 30
0.0
  0
VERTEX
  8
Furniture
 10
4666.3596136456745
 20
630.2629307409861
 30
0.0
  0
VERTEX
  8
Furniture
 10
4668.011653318801
 20
633.216153073483
 30
0.0
  0
VERTEX
  8
Furniture
 10
4669.616787102012
 20
636.1748793398572
 30
0.0
  0
VERTEX
  8
Furniture
 10
4671.174928916853
 20
639.1389508725989
 30
0.0
  0
VERTEX
  8
Furniture
 10
4672.685995204909
 20
642.1082087175466
 30
0.0
  0
VERTEX
  8
Furniture
 10
4674.149904932278
 20
645.0824936424142
 30
0.0
  0
VERTEX
  8
Furniture
 10
4675.566579593927
 20
648.0616461453267
 30
0.0
  0
VERTEX
  8
Furniture
 10
4676.935943217892
 20
651.0455064633775
 30
0.0
  0
VERTEX
  8
Furniture
 10
4678.2579223693565
 20
654.0339145811924
 30
0.0
  0
VERTEX
  8
Furniture
 10
4679.532446154593
 20
657.0267102395144
 30
0.0
  0
VERTEX
  8
Furniture
 10
4680.759446224757
 20
660.0237329437939
 30
0.0
  0
VERTEX
  8
Furniture
 10
4681.9388567795595
 20
663.0248219727995
 30
0.0
  0
VERTEX
  8
Furniture
 10
4683.070614570791
 20
666.0298163872346
 30
0.0
  0
VERTEX
  8
Furniture
 10
4684.154658905716
 20
669.0385550383677
 30
0.0
  0
VERTEX
  8
Furniture
 10
4685.190931650328
 20
672.0508765766767
 30
0.0
  0
VERTEX
  8
Furniture
 10
4686.179377232463
 20
675.0666194604987
 30
0.0
  0
VERTEX
  8
Furniture
 10
4687.119942644785
 20
678.085621964696
 30
0.0
  0
VERTEX
  8
Furniture
 10
4688.012577447625
 20
681.1077221893256
 30
0.0
  0
VERTEX
  8
Furniture
 10
4688.857233771688
 20
684.132758068325
 30
0.0
  0
VERTEX
  8
Furniture
 10
4689.653866320617
 20
687.1605673781994
 30
0.0
  0
VERTEX
  8
Furniture
 10
4690.40243237343
 20
690.1909877467256
 30
0.0
  0
VERTEX
  8
Furniture
 10
4691.102891786798
 20
693.2238566616551
 30
0.0
  0
VERTEX
  8
Furniture
 10
4691.755206997209
 20
696.259011479433
 30
0.0
  0
VERTEX
  8
Furniture
 10
4692.3593430229785
 20
699.296289433917
 30
0.0
  0
VERTEX
  8
Furniture
 10
4692.9152674661245
 20
702.3355276451088
 30
0.0
  0
VERTEX
  8
Furniture
 10
4693.422950514107
 20
705.3765631278858
 30
0.0
  0
VERTEX
  8
Furniture
 10
4693.8823649414235
 20
708.4192328007452
 30
0.0
  0
VERTEX
  8
Furniture
 10
4694.293486111073
 20
711.4633734945455
 30
0.0
  0
VERTEX
  8
Furniture
 10
4694.656291975877
 20
714.5088219612607
 30
0.0
  0
VERTEX
  8
Furniture
 10
4694.970763079655
 20
717.5554148827309
 30
0.0
  0
VERTEX
  8
Furniture
 10
4695.236882558278
 20
720.6029888794247
 30
0.0
  0
VERTEX
  8
Furniture
 10
4695.454636140565
 20
723.6513805191968
 30
0.0
  0
VERTEX
  8
Furniture
 10
4695.624012149052
 20
726.7004263260555
 30
0.0
  0
VERTEX
  8
Furniture
 10
4695.745001500619
 20
729.7499627889271
 30
0.0
  0
VERTEX
  8
Furniture
 10
4695.817597706972
 20
732.7998263704264
 30
0.0
  0
SEQEND
  8
Furniture
  0
POLYLINE
  8
Furniture
 62
254
 70
1
 66
1
 10
0.0
 20
0.0
 30
0.0
  0
VERTEX
  8
Furniture
 10
704.4561190925792
 20
3300.0
 30
0.0
  0
VERTEX
  8
Furniture
 10
700.6378004099167
 20
3299.947581940325
 30
0.0
  0
VERTEX
  8
Furniture
 10
696.8206320080392
 20
3299.790343552409
 30
0.0
  0
VERTEX
  8
Furniture
 10
693.0057638212055
 20
3299.528332204822
 30
0.0
  0
VERTEX
  8
Furniture
 10
689.1943450907277
 20
3299.1616268293255
 30
0.0
  0
VERTEX
  8
Furniture
 10
685.3875240187577
 20
3298.690337897093
 30
0.0
  0
VERTEX
  8
Furniture
 10
681.5864474223885
 20
3298.1146073854316
 30
0.0
  0
VERTEX
  8
Furniture
 10
677.7922603881706
 20
3297.4346087350095
 30
0.0
  0
VERTEX
  8
Furniture
 10
674.0061059271524
 20
3296.650546797608
 30
0.0
  0
VERTEX
  8
Furniture
 10
670.2291246305433
 20
3295.7626577744068
 30
0.0
  0
VERTEX
  8
Furniture
 10
666.462454326108
 20
3294.7712091448307
 30
0.0
  0
VERTEX
  8
Furniture
 10
662.707229735391
 20
3293.676499585968
 30
0.0
  0
VERTEX
  8
Furniture
 10
658.9645821318792
 20
3292.4788588825945
 30
0.0
  0
VERTEX
  8
Furniture
 10
655.2356390002013
 20
3291.178647827825
 30
0.0
  0
VERTEX
  8
Furniture
 10
651.5215236964701
 20
3289.7762581144207
 30
0.0
  0
VERTEX
  8
Furniture
 10
647.8233551098674
 20
3288.2721122167945
 30
0.0
  0
VERTEX
  8
Furniture
 10
644.142247325575
 20
3286.666663263736
 30
0.0
  0
VERTEX
  8
Furniture
 10
640.4793092891534
 20
3284.9603949019065
 30
0.0
  0
VERTEX
  8
Furniture
 10
636.8356444724681
 20
3283.1538211501374
 30
0.0
  0
VERTEX
  8
Furniture
 10
633.2123505412648
 20
3281.2474862445833
 30
0.0
  0
VERTEX
  8
Furniture
 10
629.6105190244948
 20
3279.2419644747656
 30
0.0
  0
VERTEX
  8
Furniture
 10
626.031234985488
 20
3277.1378600105686
 30
0.0
  0
VERTEX
  8
Furniture
 10
622.4755766950739
 20
3274.9358067202297
 30
0.0
  0
VERTEX
  8
Furniture
 10
618.9446153067494
 20
3272.636467979386
 30
0.0
  0
VERTEX
  8
Furniture
 10
615.43941453399
 20
3270.2405364712286
 30
0.0
  0
VERTEX
  8
Furniture
 10
611.9610303298033
 20
3267.7487339778318
 30
0.0
  0
VERTEX
  8
Furniture
 10
608.5105105686189
 20
3265.1618111627104
 30
0.0
  0
VERTEX
  8
Furniture
 10
605.0888947306137
 20
3262.480547344684
 30
0.0
  0
VERTEX
  8
Furniture
 10
601.6972135885645
 20
3259.7057502631023
 30
0.0
  0
VERTEX
  8
Furniture
 10
598.3364888973248
 20
3256.8382558345115
 30
0.0
  0
VERTEX
  8
Furniture
 10
595.0077330860177
 20
3253.8789279008306
 30
0.0
  0
VERTEX
  8
Furniture
 10
591.7119489530382
 20
3250.8286579691194
 30
0.0
  0
VERTEX
  8
Furniture
 10
588.4501293639577
 20
3247.6883649430056
 30
0.0
  0
VERTEX
  8
Furniture
 10
585.2232569524188
 20
3244.4589948458643
 30
0.0
  0
VERTEX
  8
Furniture
 10
582.0323038241148
 20
3241.1415205358244
 30
0.0
  0
VERTEX
  8
Furniture
 10
578.8782312639396
 20
3237.7369414126924
 30
0.0
  0
VERTEX
  8
Furniture
 10
575.7619894463969
 20
3234.246283116881
 30
0.0
  0
VERTEX
  8
Furniture
 10
572.6845171493579
 20
3230.670597220428
 30
0.0
  0
VERTEX
  8
Furniture
 10
569.6467414712506
 20
3227.010960910213
 30
0.0
  0
VERTEX
  8
Furniture
 10
566.6495775517693
 20
3223.268476663444
 30
0.0
  0
VERTEX
  8
Furniture
 10
563.693928296185
 20
3219.4442719155386
 30
0.0
  0
VERTEX
  8
Furniture
 10
560.7806841033431
 20
3215.539498720478
 30
0.0
  0
VERTEX
  8
Furniture
 10
557.910722597427
 20
3211.555333403747
 30
0.0
  0
VERTEX
  8
Furniture
 10
555.0849083635718
 20
3207.492976207963
 30
0.0
  0
VERTEX
  8
Furniture
 10
552.3040926874046
 20
3203.353650931296
 30
0.0
  0
VERTEX
  8
Furniture
 10
549.5691132985926
 20
3199.138604558802
 30
0.0
  0
VERTEX
  8
Furniture
 10
546.8807941184735
 20
3194.8491068867575
 30
0.0
  0
VERTEX
  8
Furniture
 10
544.2399450118478
 20
3190.4864501401335
 30
0.0
  0
VERTEX
  8
Furniture
 10
541.6473615430027
 20
3186.0519485833074
 30
0.0
  0
VERTEX
  8
Furniture
 10
539.1038247360477
 20
3181.5469381241373
 30
0.0
  0
VERTEX
  8
Furniture
 10
536.6101008396272
 20
3176.972775911514
 30
0.0
  0
VERTEX
  8
Furniture
 10
534.1669410960859
 20
3172.3308399265175
 30
0.0
  0
VERTEX
  8
Furniture
 10
531.7750815151552
 20
3167.6225285672936
 30
0.0
  0
VERTEX
  8
Furniture
 10
529.4352426522272
 20
3162.849260227784
 30
0.0
  0
VERTEX
  8
Furniture
 10
527.1481293912856
 20
3158.012472870429
 30
0.0
  0
VERTEX
  8
Furniture
 10
524.9144307325568
 20
3153.1136235929785
 30
0.0
  0
VERTEX
  8
Furniture
 10
522.7348195849464
 20
3148.154188189533
 30
0.0
  0
VERTEX
  8
Furniture
 10
520.6099525633235
 20
3143.135660705962
 30
0.0
  0
VERTEX
  8
Furniture
 10
518.540469790713
 20
3138.0595529898105
 30
0.0
  0
VERTEX
  8
Furniture
 10
516.5269947054567
 20
3132.927394234856
 30
0.0
  0
VERTEX
  8
Furniture
 10
514.5701338734004
 20
3127.740730520431
 30
0.0
  0
VERTEX
  8
Furniture
 10
512.6704768051642
 20
3122.5011243456624
 30
0.0
  0
VERTEX
  8
Furniture
 10
510.8285957785499
 20
3117.2101541587645
 30
0.0
  0
VERTEX
  8
Furniture
 10
509.0450456661414
 20
3111.869413881523
 30
0.0
  0
VERTEX
  8
Furniture
 10
507.32036376814693
 20
3106.480512429127
 30
0.0
  0
VERTEX
  8
Furniture
 10
505.65506965053567
 20
3101.0450732254712
 30
0.0
  0
VERTEX
  8
Furniture
 10
504.049664988517
 20
3095.564733714099
 30
0.0
  0
VERTEX
  8
Furniture
 10
502.5046334154092
 20
3090.041144864916
 30
0.0
  0
VERTEX
  8
Furniture
 10
501.02044037694327
 20
3084.4759706768305
 30
0.0
  0
VERTEX
  8
Furniture
 10
499.5975329910461
 20
3078.8708876764663
 30
0.0
  0
VERTEX
  8
Furniture
 10
498.2363399131443
 20
3073.2275844131063
 30
0.0
  0
VERTEX
  8
Furniture
 10
496.93727120703113
 20
3067.547760950011
 30
0.0
  0
VERTEX
  8
Furniture
 10
495.70071822133264
 20
3061.8331283522666
 30
0.0
  0
VERTEX
  8
Furniture
 10
494.52705347161316
 20
3056.085408171326
 30
0.0
  0
VERTEX
  8
Furniture
 10
493.41663052815375
 20
3050.30633192638
 30
0.0
  0
VERTEX
  8
Furniture
 10
492.36978390943784
 20
3044.497640582737
 30
0.0
  0
VERTEX
  8
Furniture
 10
491.3868289813764
 20
3038.661084027348
 30
0.0
  0
VERTEX
  8
Furniture
 10
490.46806186230333
 20
3032.798420541648
 30
0.0
  0
VERTEX
  8
Furniture
 10
489.61375933376837
 20
3026.9114162718697
 30
0.0
  0
VERTEX
  8
Furniture
 10
488.82417875715623
 20
3021.0018446969852
 30
0.0
  0
VERTEX
  8
Furniture
 10
488.09955799615534
 20
3015.0714860944395
 30
0.0
  0
VERTEX
  8
Furniture
 10
487.4401153451006
 20
3009.1221270038372
 30
0.0
  0
VERTEX
  8
Furniture
 10
486.8460494632118
 20
3003.1555596887406
 30
0.0
  0
VERTEX
  8
Furniture
 10
486.31753931474674
 20
2997.1735815967445
 30
0.0
  0
VERTEX
  8
Furniture
 10
485.85474411508756
 20
2991.1779948179906
 30
0.0
  0
VERTEX
  8
Furniture
 10
485.4578032827767
 20
2985.1706055422806
 30
0.0
  0
VERTEX
  8
Furniture
 10
485.12683639751674
 20
2979.153223514957
 30
0.0
  0
VERTEX
  8
Furniture
 10
484.8619431641464
 20
2973.1276614917106
 30
0.0
  0
VERTEX
  8
Furniture
 10
484.66320338260425
 20
2967.0957346924824
 30
0.0
  0
VERTEX
  8
Furniture
 10
484.5306769238888
 20
2961.059260254622
 30
0.0
  0
VERTEX
  8
Furniture
 10
484.464403712022
 20
2955.020056685471
 30
0.0
  0
VERTEX
  8
Furniture
 10
484.464403712022
 20
2948.979943314529
 30
0.0
  0
VERTEX
  8
Furniture
 10
484.5306769238888
 20
2942.940739745378
 30
0.0
  0
VERTEX
  8
Furniture
 10
484.66320338260425
 20
2936.9042653075176
 30
0.0
  0
VERTEX
  8
Furniture
 10
484.8619431641464
 20
2930.8723385082894
 30
0.0
  0
VERTEX
  8
Furniture
 10
485.12683639751674
 20
2924.846776485043
 30
0.0
  0
VERTEX
  8
Furniture
 10
485.4578032827767
 20
2918.8293944577194
 30
0.0
  0
VERTEX
  8
Furniture
 10
485.85474411508756
 20
2912.82200518201
 30
0.0
  0
VERTEX
  8
Furniture
 10
486.31753931474674
 20
2906.8264184032555
 30
0.0
  0
VERTEX
  8
Furniture
 10
486.8460494632118
 20
2900.8444403112594
 30
0.0
  0
VERTEX
  8
Furniture
 10
487.4401153451006
 20
2894.8778729961628
 30
0.0
  0
VERTEX
  8
Furniture
 10
488.09955799615534
 20
2888.9285139055605
 30
0.0
  0
VERTEX
  8
Furniture
 10
488.82417875715623
 20
2882.998155303015
 30
0.0
  0
VERTEX
  8
Furniture
 10
489.61375933376837
 20
2877.0885837281307
 30
0.0
  0
VERTEX
  8
Furniture
 10
490.4680618623032
 20
2871.201579458352
 30
0.0
  0
VERTEX
  8
Furniture
 10
491.3868289813763
 20
2865.3389159726526
 30
0.0
  0
VERTEX
  8
Furniture
 10
492.36978390943773
 20
2859.502359417263
 30
0.0
  0
VERTEX
  8
Furniture
 10
493.4166305281537
 20
2853.69366807362
 30
0.0
  0
VERTEX
  8
Furniture
 10
494.5270534716131
 20
2847.914591828674
 30
0.0
  0
VERTEX
  8
Furniture
 10
495.7007182213325
 20
2842.1668716477334
 30
0.0
  0
VERTEX
  8
Furniture
 10
496.937271207031
 20
2836.4522390499897
 30
0.0
  0
VERTEX
  8
Furniture
 10
498.2363399131443
 20
2830.7724155868937
 30
0.0
  0
VERTEX
  8
Furniture
 10
499.597532991046
 20
2825.1291123235337
 30
0.0
  0
VERTEX
  8
Furniture
 10
501.02044037694327
 20
2819.5240293231695
 30
0.0
  0
VERTEX
  8
Furniture
 10
502.50463341540916
 20
2813.958855135084
 30
0.0
  0
VERTEX
  8
Furniture
 10
504.04966498851695
 20
2808.435266285901
 30
0.0
  0
VERTEX
  8
Furniture
 10
505.6550696505356
 20
2802.954926774529
 30
0.0
  0
VERTEX
  8
Furniture
 10
507.3203637681469
 20
2797.5194875708735
 30
0.0
  0
VERTEX
  8
Furniture
 10
509.0450456661414
 20
2792.130586118477
 30
0.0
  0
VERTEX
  8
Furniture
 10
510.82859577854987
 20
2786.789845841236
 30
0.0
  0
VERTEX
  8
Furniture
 10
512.6704768051641
 20
2781.4988756543376
 30
0.0
  0
VERTEX
  8
Furniture
 10
514.5701338734004
 20
2776.259269479569
 30
0.0
  0
VERTEX
  8
Furniture
 10
516.5269947054567
 20
2771.072605765144
 30
0.0
  0
VERTEX
  8
Furniture
 10
518.540469790713
 20
2765.9404470101895
 30
0.0
  0
VERTEX
  8
Furniture
 10
520.6099525633234
 20
2760.864339294038
 30
0.0
  0
VERTEX
  8
Furniture
 10
522.7348195849463
 20
2755.845811810467
 30
0.0
  0
VERTEX
  8
Furniture
 10
524.9144307325566
 20
2750.8863764070215
 30
0.0
  0
VERTEX
  8
Furniture
 10
527.1481293912855
 20
2745.987527129571
 30
0.0
  0
VERTEX
  8
Furniture
 10
529.4352426522271
 20
2741.150739772216
 30
0.0
  0
VERTEX
  8
Furniture
 10
531.7750815151551
 20
2736.3774714327064
 30
0.0
  0
VERTEX
  8
Furniture
 10
534.1669410960858
 20
2731.669160073483
 30
0.0
  0
VERTEX
  8
Furniture
 10
536.6101008396271
 20
2727.027224088486
 30
0.0
  0
VERTEX
  8
Furniture
 10
539.1038247360476
 20
2722.4530618758627
 30
0.0
  0
VERTEX
  8
Furniture
 10
541.6473615430026
 20
2717.9480514166926
 30
0.0
  0
VERTEX
  8
Furniture
 10
544.2399450118477
 20
2713.5135498598665
 30
0.0
  0
VERTEX
  8
Furniture
 10
546.8807941184734
 20
2709.1508931132425
 30
0.0
  0
VERTEX
  8
Furniture
 10
549.5691132985924
 20
2704.861395441198
 30
0.0
  0
VERTEX
  8
Furniture
 10
552.3040926874045
 20
2700.646349068704
 30
0.0
  0
VERTEX
  8
Furniture
 10
555.0849083635717
 20
2696.5070237920377
 30
0.0
  0
VERTEX
  8
Furniture
 10
557.9107225974269
 20
2692.444666596253
 30
0.0
  0
VERTEX
  8
Furniture
 10
560.780684103343
 20
2688.460501279522
 30
0.0
  0
VERTEX
  8
Furniture
 10
563.6939282961849
 20
2684.5557280844614
 30
0.0
  0
VERTEX
  8
Furniture
 10
566.6495775517692
 20
2680.731523336556
 30
0.0
  0
VERTEX
  8
Furniture
 10
569.6467414712505
 20
2676.989039089787
 30
0.0
  0
VERTEX
  8
Furniture
 10
572.6845171493578
 20
2673.329402779572
 30
0.0
  0
VERTEX
  8
Furniture
 10
575.7619894463968
 20
2669.7537168831195
 30
0.0
  0
VERTEX
  8
Furniture
 10
578.8782312639395
 20
2666.2630585873076
 30
0.0
  0
VERTEX
  8
Furniture
 10
582.0323038241147
 20
2662.8584794641756
 30
0.0
  0
VERTEX
  8
Furniture
 10
585.2232569524186
 20
2659.5410051541357
 30
0.0
  0
VERTEX
  8
Furniture
 10
588.4501293639574
 20
2656.3116350569944
 30
0.0
  0
VERTEX
  8
Furniture
 10
591.7119489530381
 20
2653.1713420308806
 30
0.0
  0
VERTEX
  8
Furniture
 10
595.0077330860175
 20
2650.1210720991694
 30
0.0
  0
VERTEX
  8
Furniture
 10
598.3364888973247
 20
2647.1617441654885
 30
0.0
  0
VERTEX
  8
Furniture
 10
601.6972135885643
 20
2644.2942497368977
 30
0.0
  0
VERTEX
  8
Furniture
 10
605.0888947306134
 20
2641.519452655316
 30
0.0
  0
VERTEX
  8
Furniture
 10
608.5105105686188
 20
2638.8381888372896
 30
0.0
  0
VERTEX
  8
Furniture
 10
611.9610303298032
 20
2636.2512660221682
 30
0.0
  0
VERTEX
  8
Furniture
 10
615.4394145339899
 20
2633.7594635287714
 30
0.0
  0
VERTEX
  8
Furniture
 10
618.9446153067493
 20
2631.363532020614
 30
0.0
  0
VERTEX
  8
Furniture
 10
622.4755766950738
 20
2629.0641932797703
 30
0.0
  0
VERTEX
  8
Furniture
 10
626.0312349854878
 20
2626.8621399894314
 30
0.0
  0
VERTEX
  8
Furniture
 10
629.6105190244946
 20
2624.7580355252344
 30
0.0
  0
VERTEX
  8
Furniture
 10
633.2123505412645
 20
2622.7525137554167
 30
0.0
  0
VERTEX
  8
Furniture
 10
636.835644472468
 20
2620.8461788498626
 30
0.0
  0
VERTEX
  8
Furniture
 10
640.4793092891533
 20
2619.0396050980935
 30
0.0
  0
VERTEX
  8
Furniture
 10
644.1422473255749
 20
2617.333336736264
 30
0.0
  0
VERTEX
  8
Furniture
 10
647.8233551098673
 20
2615.7278877832055
 30
0.0
  0
VERTEX
  8
Furniture
 10
651.52152369647
 20
2614.2237418855793
 30
0.0
  0
VERTEX
  8
Furniture
 10
655.2356390002012
 20
2612.821352172175
 30
0.0
  0
VERTEX
  8
Furniture
 10
658.964582131879
 20
2611.5211411174055
 30
0.0
  0
VERTEX
  8
Furniture
 10
662.7072297353908
 20
2610.323500414032
 30
0.0
  0
VERTEX
  8
Furniture
 10
666.4624543261078
 20
2609.2287908551693
 30
0.0
  0
VERTEX
  8
Furniture
 10
670.2291246305432
 20
2608.2373422255932
 30
0.0
  0
VERTEX
  8
Furniture
 10
674.0061059271521
 20
2607.349453202392
 30
0.0
  0
VERTEX
  8
Furniture
 10
677.7922603881705
 20
2606.5653912649905
 30
0.0
  0
VERTEX
  8
Furniture
 10
681.5864474223883
 20
2605.8853926145684
 30
0.0
  0
VERTEX
  8
Furniture
 10
685.3875240187576
 20
2605.309662102907
 30
0.0
  0
VERTEX
  8
Furniture
 10
689.1943450907276
 20
2604.8383731706745
 30
0.0
  0
VERTEX
  8
Furniture
 10
693.0057638212053
 20
2604.471667795178
 30
0.0
  0
VERTEX
  8
Furniture
 10
696.8206320080391
 20
2604.209656447591
 30
0.0
  0
VERTEX
  8
Furniture
 10
700.6378004099166
 20
2604.052418059675
 30
0.0
  0
VERTEX
  8
Furniture
 10
704.456119092579
 20
2604.0
 30
0.0
  0
VERTEX
  8
Furniture
 10
708.2744377752415
 20
2604.052418059675
 30
0.0
  0
VERTEX
  8
Furniture
 10
712.091606177119
 20
2604.209656447591
 30
0.0
  0
VERTEX
  8
Furniture
 10
715.9064743639527
 20
2604.471667795178
 30
0.0
  0
VERTEX
  8
Furniture
 10
719.7178930944306
 20
2604.8383731706745
 30
0.0
  0
VERTEX
  8
Furniture
 10
723.5247141664004
 20
2605.309662102907
 30
0.0
  0
VERTEX
  8
Furniture
 10
727.3257907627698
 20
2605.8853926145684
 30
0.0
  0
VERTEX
  8
Furniture
 10
731.1199777969877
 20
2606.5653912649905
 30
0.0
  0
VERTEX
  8
Furniture
 10
734.9061322580059
 20
2607.349453202392
 30
0.0
  0
VERTEX
  8
Furniture
 10
738.6831135546149
 20
2608.2373422255932
 30
0.0
  0
VERTEX
  8
Furniture
 10
742.4497838590503
 20
2609.2287908551693
 30
0.0
  0
VERTEX
  8
Furniture
 10
746.2050084497672
 20
2610.323500414032
 30
0.0
  0
VERTEX
  8
Furniture
 10
749.947656053279
 20
2611.5211411174055
 30
0.0
  0
VERTEX
  8
Furniture
 10
753.6765991849568
 20
2612.821352172175
 30
0.0
  0
VERTEX
  8
Furniture
 10
757.3907144886881
 20
2614.2237418855793
 30
0.0
  0
VERTEX
  8
Furniture
 10
761.0888830752908
 20
2615.7278877832055
 30
0.0
  0
VERTEX
  8
Furniture
 10
764.7699908595832
 20
2617.333336736264
 30
0.0
  0
VERTEX
  8
Furniture
 10
768.4329288960048
 20
2619.0396050980935
 30
0.0
  0
VERTEX
  8
Furniture
 10
772.0765937126903
 20
2620.8461788498626
 30
0.0
  0
VERTEX
  8
Furniture
 10
775.6998876438935
 20
2622.7525137554167
 30
0.0
  0
VERTEX
  8
Furniture
 10
779.3017191606634
 20
2624.7580355252344
 30
0.0
  0
VERTEX
  8
Furniture
 10
782.8810031996702
 20
2626.8621399894314
 30
0.0
  0
VERTEX
  8
Furniture
 10
786.4366614900844
 20
2629.0641932797703
 30
0.0
  0
VERTEX
  8
Furniture
 10
789.9676228784089
 20
2631.363532020614
 30
0.0
  0
VERTEX
  8
Furniture
 10
793.4728236511681
 20
2633.7594635287714
 30
0.0
  0
VERTEX
  8
Furniture
 10
796.951207855355
 20
2636.2512660221682
 30
0.0
  0
VERTEX
  8
Furniture
 10
800.4017276165393
 20
2638.8381888372896
 30
0.0
  0
VERTEX
  8
Furniture
 10
803.8233434545446
 20
2641.519452655316
 30
0.0
  0
VERTEX
  8
Furniture
 10
807.2150245965937
 20
2644.2942497368977
 30
0.0
  0
VERTEX
  8
Furniture
 10
810.5757492878334
 20
2647.1617441654885
 30
0.0
  0
VERTEX
  8
Furniture
 10
813.9045050991406
 20
2650.1210720991694
 30
0.0
  0
VERTEX
  8
Furniture
 10
817.20028923212
 20
2653.1713420308806
 30
0.0
  0
VERTEX
  8
Furniture
 10
820.4621088212006
 20
2656.3116350569944
 30
0.0
  0
VERTEX
  8
Furniture
 10
823.6889812327395
 20
2659.5410051541357
 30
0.0
  0
VERTEX
  8
Furniture
 10
826.8799343610434
 20
2662.8584794641756
 30
0.0
  0
VERTEX
  8
Furniture
 10
830.0340069212186
 20
2666.2630585873076
 30
0.0
  0
VERTEX
  8
Furniture
 10
833.1502487387612
 20
2669.753716883119
 30
0.0
  0
VERTEX
  8
Furniture
 10
836.2277210358003
 20
2673.329402779572
 30
0.0
  0
VERTEX
  8
Furniture
 10
839.2654967139076
 20
2676.989039089787
 30
0.0
  0
VERTEX
  8
Furniture
 10
842.2626606333889
 20
2680.731523336556
 30
0.0
  0
VERTEX
  8
Furniture
 10
845.2183098889732
 20
2684.5557280844614
 30
0.0
  0
VERTEX
  8
Furniture
 10
848.1315540818152
 20
2688.460501279522
 30
0.0
  0
VERTEX
  8
Furniture
 10
851.0015155877312
 20
2692.444666596253
 30
0.0
  0
VERTEX
  8
Furniture
 10
853.8273298215864
 20
2696.507023792037
 30
0.0
  0
VERTEX
  8
Furniture
 10
856.6081454977536
 20
2700.646349068704
 30
0.0
  0
VERTEX
  8
Furniture
 10
859.3431248865656
 20
2704.861395441198
 30
0.0
  0
VERTEX
  8
Furniture
 10
862.0314440666847
 20
2709.1508931132425
 30
0.0
  0
VERTEX
  8
Furniture
 10
864.6722931733104
 20
2713.5135498598665
 30
0.0
  0
VERTEX
  8
Furniture
 10
867.2648766421554
 20
2717.9480514166926
 30
0.0
  0
VERTEX
  8
Furniture
 10
869.8084134491105
 20
2722.4530618758627
 30
0.0
  0
VERTEX
  8
Furniture
 10
872.302137345531
 20
2727.027224088486
 30
0.0
  0
VERTEX
  8
Furniture
 10
874.7452970890723
 20
2731.6691600734825
 30
0.0
  0
VERTEX
  8
Furniture
 10
877.1371566700032
 20
2736.3774714327064
 30
0.0
  0
VERTEX
  8
Furniture
 10
879.476995532931
 20
2741.150739772216
 30
0.0
  0
VERTEX
  8
Furniture
 10
881.7641087938727
 20
2745.987527129571
 30
0.0
  0
VERTEX
  8
Furniture
 10
883.9978074526016
 20
2750.886376407022
 30
0.0
  0
VERTEX
  8
Furniture
 10
886.1774186002118
 20
2755.8458118104663
 30
0.0
  0
VERTEX
  8
Furniture
 10
888.3022856218347
 20
2760.864339294038
 30
0.0
  0
VERTEX
  8
Furniture
 10
890.3717683944451
 20
2765.9404470101895
 30
0.0
  0
VERTEX
  8
Furniture
 10
892.3852434797016
 20
2771.072605765144
 30
0.0
  0
VERTEX
  8
Furniture
 10
894.3421043117578
 20
2776.259269479569
 30
0.0
  0
VERTEX
  8
Furniture
 10
896.241761379994
 20
2781.4988756543376
 30
0.0
  0
VERTEX
  8
Furniture
 10
898.0836424066083
 20
2786.7898458412355
 30
0.0
  0
VERTEX
  8
Furniture
 10
899.8671925190167
 20
2792.1305861184765
 30
0.0
  0
VERTEX
  8
Furniture
 10
901.5918744170112
 20
2797.519487570873
 30
0.0
  0
VERTEX
  8
Furniture
 10
903.2571685346226
 20
2802.954926774529
 30
0.0
  0
VERTEX
  8
Furniture
 10
904.8625731966412
 20
2808.435266285901
 30
0.0
  0
VERTEX
  8
Furniture
 10
906.407604769749
 20
2813.9588551350835
 30
0.0
  0
VERTEX
  8
Furniture
 10
907.891797808215
 20
2819.5240293231695
 30
0.0
  0
VERTEX
  8
Furniture
 10
909.3147051941121
 20
2825.1291123235337
 30
0.0
  0
VERTEX
  8
Furniture
 10
910.6758982720139
 20
2830.7724155868937
 30
0.0
  0
VERTEX
  8
Furniture
 10
911.9749669781272
 20
2836.4522390499897
 30
0.0
  0
VERTEX
  8
Furniture
 10
913.2115199638256
 20
2842.1668716477334
 30
0.0
  0
VERTEX
  8
Furniture
 10
914.3851847135451
 20
2847.914591828674
 30
0.0
  0
VERTEX
  8
Furniture
 10
915.4956076570045
 20
2853.69366807362
 30
0.0
  0
VERTEX
  8
Furniture
 10
916.5424542757204
 20
2859.502359417263
 30
0.0
  0
VERTEX
  8
Furniture
 10
917.5254092037819
 20
2865.3389159726526
 30
0.0
  0
VERTEX
  8
Furniture
 10
918.4441763228549
 20
2871.201579458352
 30
0.0
  0
VERTEX
  8
Furniture
 10
919.2984788513899
 20
2877.0885837281307
 30
0.0
  0
VERTEX
  8
Furniture
 10
920.088059428002
 20
2882.9981553030148
 30
0.0
  0
VERTEX
  8
Furniture
 10
920.8126801890029
 20
2888.92851390556
 30
0.0
  0
VERTEX
  8
Furniture
 10
921.4721228400576
 20
2894.8778729961628
 30
0.0
  0
VERTEX
  8
Furniture
 10
922.0661887219464
 20
2900.8444403112594
 30
0.0
  0
VERTEX
  8
Furniture
 10
922.5946988704115
 20
2906.8264184032555
 30
0.0
  0
VERTEX
  8
Furniture
 10
923.0574940700707
 20
2912.8220051820094
 30
0.0
  0
VERTEX
  8
Furniture
 10
923.4544349023815
 20
2918.8293944577194
 30
0.0
  0
VERTEX
  8
Furniture
 10
923.7854017876415
 20
2924.846776485043
 30
0.0
  0
VERTEX
  8
Furniture
 10
924.0502950210118
 20
2930.8723385082894
 30
0.0
  0
VERTEX
  8
Furniture
 10
924.249034802554
 20
2936.9042653075176
 30
0.0
  0
VERTEX
  8
Furniture
 10
924.3815612612694
 20
2942.940739745378
 30
0.0
  0
VERTEX
  8
Furniture
 10
924.4478344731363
 20
2948.979943314529
 30
0.0
  0
VERTEX
  8
Furniture
 10
924.4478344731363
 20
2955.020056685471
 30
0.0
  0
VERTEX
  8
Furniture
 10
924.3815612612694
 20
2961.059260254622
 30
0.0
  0
VERTEX
  8
Furniture
 10
924.249034802554
 20
2967.0957346924824
 30
0.0
  0
VERTEX
  8
Furniture
 10
924.0502950210118
 20
2973.1276614917106
 30
0.0
  0
VERTEX
  8
Furniture
 10
923.7854017876415
 20
2979.153223514957
 30
0.0
  0
VERTEX
  8
Furniture
 10
923.4544349023815
 20
2985.1706055422806
 30
0.0
  0
VERTEX
  8
Furniture
 10
923.0574940700707
 20
2991.1779948179906
 30
0.0
  0
VERTEX
  8
Furniture
 10
922.5946988704115
 20
2997.173581596744
 30
0.0
  0
VERTEX
  8
Furniture
 10
922.0661887219464
 20
3003.1555596887406
 30
0.0
  0
VERTEX
  8
Furniture
 10
921.4721228400576
 20
3009.1221270038372
 30
0.0
  0
VERTEX
  8
Furniture
 10
920.8126801890029
 20
3015.0714860944395
 30
0.0
  0
VERTEX
  8
Furniture
 10
920.088059428002
 20
3021.0018446969852
 30
0.0
  0
VERTEX
  8
Furniture
 10
919.2984788513899
 20
3026.9114162718697
 30
0.0
  0
VERTEX
  8
Furniture
 10
918.444176322855
 20
3032.7984205416474
 30
0.0
  0
VERTEX
  8
Furniture
 10
917.5254092037819
 20
3038.661084027348
 30
0.0
  0
VERTEX
  8
Furniture
 10
916.5424542757205
 20
3044.497640582737
 30
0.0
  0
VERTEX
  8
Furniture
 10
915.4956076570045
 20
3050.30633192638
 30
0.0
  0
VERTEX
  8
Furniture
 10
914.3851847135451
 20
3056.085408171326
 30
0.0
  0
VERTEX
  8
Furniture
 10
913.2115199638257
 20
3061.8331283522666
 30
0.0
  0
VERTEX
  8
Furniture
 10
911.9749669781272
 20
3067.547760950011
 30
0.0
  0
VERTEX
  8
Furniture
 10
910.6758982720139
 20
3073.2275844131063
 30
0.0
  0
VERTEX
  8
Furniture
 10
909.3147051941122
 20
3078.8708876764663
 30
0.0
  0
VERTEX
  8
Furniture
 10
907.891797808215
 20
3084.4759706768305
 30
0.0
  0
VERTEX
  8
Furniture
 10
906.4076047697491
 20
3090.041144864916
 30
0.0
  0
VERTEX
  8
Furniture
 10
904.8625731966413
 20
3095.564733714099
 30
0.0
  0
VERTEX
  8
Furniture
 10
903.2571685346226
 20
3101.045073225471
 30
0.0
  0
VERTEX
  8
Furniture
 10
901.5918744170114
 20
3106.4805124291265
 30
0.0
  0
VERTEX
  8
Furniture
 10
899.8671925190168
 20
3111.869413881523
 30
0.0
  0
VERTEX
  8
Furniture
 10
898.0836424066083
 20
3117.2101541587645
 30
0.0
  0
VERTEX
  8
Furniture
 10
896.2417613799942
 20
3122.5011243456624
 30
0.0
  0
VERTEX
  8
Furniture
 10
894.3421043117578
 20
3127.740730520431
 30
0.0
  0
VERTEX
  8
Furniture
 10
892.3852434797016
 20
3132.927394234856
 30
0.0
  0
VERTEX
  8
Furniture
 10
890.3717683944453
 20
3138.0595529898105
 30
0.0
  0
VERTEX
  8
Furniture
 10
888.3022856218347
 20
3143.135660705962
 30
0.0
  0
VERTEX
  8
Furniture
 10
886.1774186002119
 20
3148.154188189533
 30
0.0
  0
VERTEX
  8
Furniture
 10
883.9978074526016
 20
3153.1136235929785
 30
0.0
  0
VERTEX
  8
Furniture
 10
881.7641087938728
 20
3158.012472870429
 30
0.0
  0
VERTEX
  8
Furniture
 10
879.4769955329311
 20
3162.849260227784
 30
0.0
  0
VERTEX
  8
Furniture
 10
877.1371566700032
 20
3167.6225285672936
 30
0.0
  0
VERTEX
  8
Furniture
 10
874.7452970890726
 20
3172.330839926517
 30
0.0
  0
VERTEX
  8
Furniture
 10
872.3021373455312
 20
3176.972775911514
 30
0.0
  0
VERTEX
  8
Furniture
 10
869.8084134491105
 20
3181.5469381241373
 30
0.0
  0
VERTEX
  8
Furniture
 10
867.2648766421556
 20
3186.0519485833074
 30
0.0
  0
VERTEX
  8
Furniture
 10
864.6722931733107
 20
3190.4864501401335
 30
0.0
  0
VERTEX
  8
Furniture
 10
862.0314440666847
 20
3194.8491068867575
 30
0.0
  0
VERTEX
  8
Furniture
 10
859.3431248865659
 20
3199.138604558802
 30
0.0
  0
VERTEX
  8
Furniture
 10
856.6081454977536
 20
3203.353650931296
 30
0.0
  0
VERTEX
  8
Furniture
 10
853.8273298215867
 20
3207.4929762079623
 30
0.0
  0
VERTEX
  8
Furniture
 10
851.0015155877313
 20
3211.555333403747
 30
0.0
  0
VERTEX
  8
Furniture
 10
848.1315540818152
 20
3215.539498720478
 30
0.0
  0
VERTEX
  8
Furniture
 10
845.2183098889734
 20
3219.4442719155386
 30
0.0
  0
VERTEX
  8
Furniture
 10
842.262660633389
 20
3223.268476663444
 30
0.0
  0
VERTEX
  8
Furniture
 10
839.2654967139079
 20
3227.0109609102124
 30
0.0
  0
VERTEX
  8
Furniture
 10
836.2277210358004
 20
3230.670597220428
 30
0.0
  0
VERTEX
  8
Furniture
 10
833.1502487387613
 20
3234.246283116881
 30
0.0
  0
VERTEX
  8
Furniture
 10
830.0340069212187
 20
3237.7369414126924
 30
0.0
  0
VERTEX
  8
Furniture
 10
826.8799343610435
 20
3241.1415205358244
 30
0.0
  0
VERTEX
  8
Furniture
 10
823.6889812327396
 20
3244.4589948458643
 30
0.0
  0
VERTEX
  8
Furniture
 10
820.4621088212008
 20
3247.6883649430056
 30
0.0
  0
VERTEX
  8
Furniture
 10
817.2002892321201
 20
3250.8286579691194
 30
0.0
  0
VERTEX
  8
Furniture
 10
813.9045050991407
 20
3253.8789279008306
 30
0.0
  0
VERTEX
  8
Furniture
 10
810.5757492878337
 20
3256.8382558345115
 30
0.0
  0
VERTEX
  8
Furniture
 10
807.2150245965938
 20
3259.7057502631023
 30
0.0
  0
VERTEX
  8
Furniture
 10
803.8233434545448
 20
3262.480547344684
 30
0.0
  0
VERTEX
  8
Furniture
 10
800.4017276165395
 20
3265.1618111627104
 30
0.0
  0
VERTEX
  8
Furniture
 10
796.951207855355
 20
3267.7487339778318
 30
0.0
  0
VERTEX
  8
Furniture
 10
793.4728236511684
 20
3270.2405364712286
 30
0.0
  0
VERTEX
  8
Furniture
 10
789.967622878409
 20
3272.636467979386
 30
0.0
  0
VERTEX
  8
Furniture
 10
786.4366614900846
 20
3274.9358067202297
 30
0.0
  0
VERTEX
  8
Furniture
 10
782.8810031996704
 20
3277.1378600105686
 30
0.0
  0
VERTEX
  8
Furniture
 10
779.3017191606635
 20
3279.2419644747656
 30
0.0
  0
VERTEX
  8
Furniture
 10
775.6998876438937
 20
3281.2474862445833
 30
0.0
  0
VERTEX
  8
Furniture
 10
772.0765937126904
 20
3283.1538211501374
 30
0.0
  0
VERTEX
  8
Furniture
 10
768.4329288960049
 20
3284.9603949019065
 30
0.0
  0
VERTEX
  8
Furniture
 10
764.7699908595835
 20
3286.666663263736
 30
0.0
  0
VERTEX
  8
Furniture
 10
761.0888830752909
 20
3288.2721122167945
 30
0.0
  0
VERTEX
  8
Furniture
 10
757.3907144886881
 20
3289.7762581144207
 30
0.0
  0
VERTEX
  8
Furniture
 10
753.676599184957
 20
3291.178647827825
 30
0.0
  0
VERTEX
  8
Furniture
 10
749.9476560532792
 20
3292.4788588825945
 30
0.0
  0
VERTEX
  8
Furniture
 10
746.2050084497674
 20
3293.676499585968
 30
0.0
  0
VERTEX
  8
Furniture
 10
742.4497838590504
 20
3294.7712091448307
 30
0.0
  0
VERTEX
  8
Furniture
 10
738.6831135546149
 20
3295.7626577744068
 30
0.0
  0
VERTEX
  8
Furniture
 10
734.9061322580061
 20
3296.650546797608
 30
0.0
  0
VERTEX
  8
Furniture
 10
731.1199777969878
 20
3297.4346087350095
 30
0.0
  0
VERTEX
  8
Furniture
 10
727.32579076277
 20
3298.1146073854316
 30
0.0
  0
VERTEX
  8
Furniture
 10
723.5247141664006
 20
3298.690337897093
 30
0.0
  0
VERTEX
  8
Furniture
 10
719.7178930944307
 20
3299.1616268293255
 30
0.0
  0
VERTEX
  8
Furniture
 10
715.906474363953
 20
3299.528332204822
 30
0.0
  0
VERTEX
  8
Furniture
 10
712.0916061771193
 20
3299.790343552409
 30
0.0
  0
VERTEX
  8
Furniture
 10
708.2744377752416
 20
3299.947581940325
 30
0.0
  0
SEQEND
  8
Furniture
  0
POLYLINE
  8
Furniture
 62
254
 70
1
 66
1
 10
0.0
 20
0.0
 30
0.0
  0
VERTEX
  8
Furniture
 10
1810.4588623046877
 20
3060.458862304688
 30
0.0
  0
VERTEX
  8
Furniture
 10
3189.541137695312
 20
3060.458862304688
 30
0.0
  0
VERTEX
  8
Furniture
 10
3189.541137695312
 20
3439.541137695312
 30
0.0
  0
VERTEX
  8
Furniture
 10
1810.4588623046877
 20
3439.541137695312
 30
0.0
  0
SEQEND
  8
Furniture
  0
CIRCLE
  8
Furniture
 62
254
 10
2500.0
 20
3250.0
 30
0.0
 40
55.42995424011517
  0
CIRCLE
  8
Furniture
 62
254
 10
4602.0517578125
 20
2878.9777832031255
 30
0.0
 40
160.0
  0
POLYLINE
  8
Furniture
 62
254
 70
0
 66
1
 10
0.0
 20
0.0
 30
0.0
  0
VERTEX
  8
Furniture
 10
5000.0
 20
2898.81201171875
 30
0.0
  0
VERTEX
  8
Furniture
 10
4761.688113098404
 20
2898.81201171875
 30
0.0
  0
SEQEND
  8
Furniture
  0
POLYLINE
  8
Furniture
 62
254
 70
1
 66
1
 10
0.0
 20
0.0
 30
0.0
  0
VERTEX
  8
Furniture
 10
0.0
 20
2092.049072265625
 30
0.0
  0
VERTEX
  8
Furniture
 10
745.0
 20
2092.049072265625
 30
0.0
  0
VERTEX
  8
Furniture
 10
745.0
 20
2149.999972265625
 30
0.0
  0
VERTEX
  8
Furniture
 10
0.0
 20
2149.999972265625
 30
0.0
  0
SEQEND
  8
Furniture
  0
ARC
  8
Furniture
 62
254
 10
-1.28e-13
 20
2092.049072265625
 30
0.0
 40
742.049072265625
 50
-90.00000000000001
 51
-0.0
  0
POLYLINE
  8
Furniture
 62
254
 70
0
 66
1
 10
0.0
 20
0.0
 30
0.0
  0
VERTEX
  8
Furniture
 10
5000.0
 20
2870.91845703125
 30
0.0
  0
VERTEX
  8
Furniture
 10
4761.688113098404
 20
2870.91845703125
 30
0.0
  0
SEQEND
  8
Furniture
  0
ENDSEC
  0
EOF
